# Tiled2Unity generated file. Do not modify by hand.
# Wavefront file for 'Chapter1_mesh_0115.obj'

# Vertices (Count = 392)
v -144 -144 0
v -160 -144 0
v -160 -128 0
v -144 -128 0
v -160 -144 0
v -176 -144 0
v -176 -128 0
v -160 -128 0
v -176 -144 0
v -192 -144 0
v -192 -128 0
v -176 -128 0
v -192 -144 0
v -208 -144 0
v -208 -128 0
v -192 -128 0
v -208 -144 0
v -224 -144 0
v -224 -128 0
v -208 -128 0
v -224 -144 0
v -240 -144 0
v -240 -128 0
v -224 -128 0
v -240 -144 0
v -256 -144 0
v -256 -128 0
v -240 -128 0
v -128 -160 0
v -144 -160 0
v -144 -144 0
v -128 -144 0
v -144 -160 0
v -160 -160 0
v -160 -144 0
v -144 -144 0
v -160 -160 0
v -176 -160 0
v -176 -144 0
v -160 -144 0
v -176 -160 0
v -192 -160 0
v -192 -144 0
v -176 -144 0
v -192 -160 0
v -208 -160 0
v -208 -144 0
v -192 -144 0
v -208 -160 0
v -224 -160 0
v -224 -144 0
v -208 -144 0
v -224 -160 0
v -240 -160 0
v -240 -144 0
v -224 -144 0
v -240 -160 0
v -256 -160 0
v -256 -144 0
v -240 -144 0
v -112 -176 0
v -128 -176 0
v -128 -160 0
v -112 -160 0
v -128 -176 0
v -144 -176 0
v -144 -160 0
v -128 -160 0
v -144 -176 0
v -160 -176 0
v -160 -160 0
v -144 -160 0
v -160 -176 0
v -176 -176 0
v -176 -160 0
v -160 -160 0
v -176 -176 0
v -192 -176 0
v -192 -160 0
v -176 -160 0
v -192 -176 0
v -208 -176 0
v -208 -160 0
v -192 -160 0
v -208 -176 0
v -224 -176 0
v -224 -160 0
v -208 -160 0
v -224 -176 0
v -240 -176 0
v -240 -160 0
v -224 -160 0
v -240 -176 0
v -256 -176 0
v -256 -160 0
v -240 -160 0
v -64 -192 0
v -80 -192 0
v -80 -176 0
v -64 -176 0
v -80 -192 0
v -96 -192 0
v -96 -176 0
v -80 -176 0
v -96 -192 0
v -112 -192 0
v -112 -176 0
v -96 -176 0
v -112 -192 0
v -128 -192 0
v -128 -176 0
v -112 -176 0
v -128 -192 0
v -144 -192 0
v -144 -176 0
v -128 -176 0
v -144 -192 0
v -160 -192 0
v -160 -176 0
v -144 -176 0
v -160 -192 0
v -176 -192 0
v -176 -176 0
v -160 -176 0
v -176 -192 0
v -192 -192 0
v -192 -176 0
v -176 -176 0
v -192 -192 0
v -208 -192 0
v -208 -176 0
v -192 -176 0
v -208 -192 0
v -224 -192 0
v -224 -176 0
v -208 -176 0
v -224 -192 0
v -240 -192 0
v -240 -176 0
v -224 -176 0
v -240 -192 0
v -256 -192 0
v -256 -176 0
v -240 -176 0
v -32 -208 0
v -48 -208 0
v -48 -192 0
v -32 -192 0
v -48 -208 0
v -64 -208 0
v -64 -192 0
v -48 -192 0
v -64 -208 0
v -80 -208 0
v -80 -192 0
v -64 -192 0
v -80 -208 0
v -96 -208 0
v -96 -192 0
v -80 -192 0
v -96 -208 0
v -112 -208 0
v -112 -192 0
v -96 -192 0
v -112 -208 0
v -128 -208 0
v -128 -192 0
v -112 -192 0
v -128 -208 0
v -144 -208 0
v -144 -192 0
v -128 -192 0
v -144 -208 0
v -160 -208 0
v -160 -192 0
v -144 -192 0
v -160 -208 0
v -176 -208 0
v -176 -192 0
v -160 -192 0
v -176 -208 0
v -192 -208 0
v -192 -192 0
v -176 -192 0
v -192 -208 0
v -208 -208 0
v -208 -192 0
v -192 -192 0
v -208 -208 0
v -224 -208 0
v -224 -192 0
v -208 -192 0
v -224 -208 0
v -240 -208 0
v -240 -192 0
v -224 -192 0
v -240 -208 0
v -256 -208 0
v -256 -192 0
v -240 -192 0
v 0 -224 0
v -16 -224 0
v -16 -208 0
v 0 -208 0
v -16 -224 0
v -32 -224 0
v -32 -208 0
v -16 -208 0
v -32 -224 0
v -48 -224 0
v -48 -208 0
v -32 -208 0
v -48 -224 0
v -64 -224 0
v -64 -208 0
v -48 -208 0
v -64 -224 0
v -80 -224 0
v -80 -208 0
v -64 -208 0
v -80 -224 0
v -96 -224 0
v -96 -208 0
v -80 -208 0
v -96 -224 0
v -112 -224 0
v -112 -208 0
v -96 -208 0
v -112 -224 0
v -128 -224 0
v -128 -208 0
v -112 -208 0
v -128 -224 0
v -144 -224 0
v -144 -208 0
v -128 -208 0
v -144 -224 0
v -160 -224 0
v -160 -208 0
v -144 -208 0
v -160 -224 0
v -176 -224 0
v -176 -208 0
v -160 -208 0
v -176 -224 0
v -192 -224 0
v -192 -208 0
v -176 -208 0
v -192 -224 0
v -208 -224 0
v -208 -208 0
v -192 -208 0
v -208 -224 0
v -224 -224 0
v -224 -208 0
v -208 -208 0
v -224 -224 0
v -240 -224 0
v -240 -208 0
v -224 -208 0
v -240 -224 0
v -256 -224 0
v -256 -208 0
v -240 -208 0
v 0 -240 0
v -16 -240 0
v -16 -224 0
v 0 -224 0
v -16 -240 0
v -32 -240 0
v -32 -224 0
v -16 -224 0
v -32 -240 0
v -48 -240 0
v -48 -224 0
v -32 -224 0
v -48 -240 0
v -64 -240 0
v -64 -224 0
v -48 -224 0
v -64 -240 0
v -80 -240 0
v -80 -224 0
v -64 -224 0
v -80 -240 0
v -96 -240 0
v -96 -224 0
v -80 -224 0
v -96 -240 0
v -112 -240 0
v -112 -224 0
v -96 -224 0
v -112 -240 0
v -128 -240 0
v -128 -224 0
v -112 -224 0
v -128 -240 0
v -144 -240 0
v -144 -224 0
v -128 -224 0
v -144 -240 0
v -160 -240 0
v -160 -224 0
v -144 -224 0
v -160 -240 0
v -176 -240 0
v -176 -224 0
v -160 -224 0
v -176 -240 0
v -192 -240 0
v -192 -224 0
v -176 -224 0
v -192 -240 0
v -208 -240 0
v -208 -224 0
v -192 -224 0
v -208 -240 0
v -224 -240 0
v -224 -224 0
v -208 -224 0
v -224 -240 0
v -240 -240 0
v -240 -224 0
v -224 -224 0
v -240 -240 0
v -256 -240 0
v -256 -224 0
v -240 -224 0
v 0 -256 0
v -16 -256 0
v -16 -240 0
v 0 -240 0
v -16 -256 0
v -32 -256 0
v -32 -240 0
v -16 -240 0
v -32 -256 0
v -48 -256 0
v -48 -240 0
v -32 -240 0
v -48 -256 0
v -64 -256 0
v -64 -240 0
v -48 -240 0
v -64 -256 0
v -80 -256 0
v -80 -240 0
v -64 -240 0
v -80 -256 0
v -96 -256 0
v -96 -240 0
v -80 -240 0
v -96 -256 0
v -112 -256 0
v -112 -240 0
v -96 -240 0
v -112 -256 0
v -128 -256 0
v -128 -240 0
v -112 -240 0
v -128 -256 0
v -144 -256 0
v -144 -240 0
v -128 -240 0
v -144 -256 0
v -160 -256 0
v -160 -240 0
v -144 -240 0
v -160 -256 0
v -176 -256 0
v -176 -240 0
v -160 -240 0
v -176 -256 0
v -192 -256 0
v -192 -240 0
v -176 -240 0
v -192 -256 0
v -208 -256 0
v -208 -240 0
v -192 -240 0
v -208 -256 0
v -224 -256 0
v -224 -240 0
v -208 -240 0
v -224 -256 0
v -240 -256 0
v -240 -240 0
v -224 -240 0
v -240 -256 0
v -256 -256 0
v -256 -240 0
v -240 -240 0

# Texture cooridinates (Count = 12)
vt 0 0.8333333
vt 0.1 0.8333333
vt 0.1 1
vt 0 1
vt 0.2 0.8333333
vt 0.2 1
vt 0.6 0.8333333
vt 0.7 0.8333333
vt 0.7 1
vt 0.6 1
vt 0.1 0.6666666
vt 0.2 0.6666666

# Normal
vn 0 0 -1

# Mesh description
g Chapter1_mesh_0115

# Faces
f 1/1/1 2/2/1 3/3/1 4/4/1
f 5/2/1 6/5/1 7/6/1 8/3/1
f 9/2/1 10/5/1 11/6/1 12/3/1
f 13/2/1 14/5/1 15/6/1 16/3/1
f 17/2/1 18/5/1 19/6/1 20/3/1
f 21/2/1 22/5/1 23/6/1 24/3/1
f 25/2/1 26/5/1 27/6/1 28/3/1
f 29/1/1 30/2/1 31/3/1 32/4/1
f 33/2/1 34/5/1 35/6/1 36/3/1
f 37/7/1 38/8/1 39/9/1 40/10/1
f 41/11/1 42/12/1 43/5/1 44/2/1
f 45/11/1 46/12/1 47/5/1 48/2/1
f 49/11/1 50/12/1 51/5/1 52/2/1
f 53/11/1 54/12/1 55/5/1 56/2/1
f 57/11/1 58/12/1 59/5/1 60/2/1
f 61/1/1 62/2/1 63/3/1 64/4/1
f 65/2/1 66/5/1 67/6/1 68/3/1
f 69/7/1 70/8/1 71/9/1 72/10/1
f 73/11/1 74/12/1 75/5/1 76/2/1
f 77/11/1 78/12/1 79/5/1 80/2/1
f 81/11/1 82/12/1 83/5/1 84/2/1
f 85/11/1 86/12/1 87/5/1 88/2/1
f 89/11/1 90/12/1 91/5/1 92/2/1
f 93/11/1 94/12/1 95/5/1 96/2/1
f 97/1/1 98/2/1 99/3/1 100/4/1
f 101/2/1 102/5/1 103/6/1 104/3/1
f 105/2/1 106/5/1 107/6/1 108/3/1
f 109/2/1 110/5/1 111/6/1 112/3/1
f 113/7/1 114/8/1 115/9/1 116/10/1
f 117/11/1 118/12/1 119/5/1 120/2/1
f 121/11/1 122/12/1 123/5/1 124/2/1
f 125/11/1 126/12/1 127/5/1 128/2/1
f 129/11/1 130/12/1 131/5/1 132/2/1
f 133/11/1 134/12/1 135/5/1 136/2/1
f 137/11/1 138/12/1 139/5/1 140/2/1
f 141/11/1 142/12/1 143/5/1 144/2/1
f 145/1/1 146/2/1 147/3/1 148/4/1
f 149/2/1 150/5/1 151/6/1 152/3/1
f 153/2/1 154/5/1 155/6/1 156/3/1
f 157/7/1 158/8/1 159/9/1 160/10/1
f 161/11/1 162/12/1 163/5/1 164/2/1
f 165/11/1 166/12/1 167/5/1 168/2/1
f 169/11/1 170/12/1 171/5/1 172/2/1
f 173/11/1 174/12/1 175/5/1 176/2/1
f 177/11/1 178/12/1 179/5/1 180/2/1
f 181/11/1 182/12/1 183/5/1 184/2/1
f 185/11/1 186/12/1 187/5/1 188/2/1
f 189/11/1 190/12/1 191/5/1 192/2/1
f 193/11/1 194/12/1 195/5/1 196/2/1
f 197/11/1 198/12/1 199/5/1 200/2/1
f 201/2/1 202/5/1 203/6/1 204/3/1
f 205/2/1 206/5/1 207/6/1 208/3/1
f 209/2/1 210/5/1 211/6/1 212/3/1
f 213/7/1 214/8/1 215/9/1 216/10/1
f 217/11/1 218/12/1 219/5/1 220/2/1
f 221/11/1 222/12/1 223/5/1 224/2/1
f 225/11/1 226/12/1 227/5/1 228/2/1
f 229/11/1 230/12/1 231/5/1 232/2/1
f 233/11/1 234/12/1 235/5/1 236/2/1
f 237/11/1 238/12/1 239/5/1 240/2/1
f 241/11/1 242/12/1 243/5/1 244/2/1
f 245/11/1 246/12/1 247/5/1 248/2/1
f 249/11/1 250/12/1 251/5/1 252/2/1
f 253/11/1 254/12/1 255/5/1 256/2/1
f 257/11/1 258/12/1 259/5/1 260/2/1
f 261/11/1 262/12/1 263/5/1 264/2/1
f 265/11/1 266/12/1 267/5/1 268/2/1
f 269/11/1 270/12/1 271/5/1 272/2/1
f 273/11/1 274/12/1 275/5/1 276/2/1
f 277/11/1 278/12/1 279/5/1 280/2/1
f 281/11/1 282/12/1 283/5/1 284/2/1
f 285/11/1 286/12/1 287/5/1 288/2/1
f 289/11/1 290/12/1 291/5/1 292/2/1
f 293/11/1 294/12/1 295/5/1 296/2/1
f 297/11/1 298/12/1 299/5/1 300/2/1
f 301/11/1 302/12/1 303/5/1 304/2/1
f 305/11/1 306/12/1 307/5/1 308/2/1
f 309/11/1 310/12/1 311/5/1 312/2/1
f 313/11/1 314/12/1 315/5/1 316/2/1
f 317/11/1 318/12/1 319/5/1 320/2/1
f 321/11/1 322/12/1 323/5/1 324/2/1
f 325/11/1 326/12/1 327/5/1 328/2/1
f 329/11/1 330/12/1 331/5/1 332/2/1
f 333/11/1 334/12/1 335/5/1 336/2/1
f 337/11/1 338/12/1 339/5/1 340/2/1
f 341/11/1 342/12/1 343/5/1 344/2/1
f 345/11/1 346/12/1 347/5/1 348/2/1
f 349/11/1 350/12/1 351/5/1 352/2/1
f 353/11/1 354/12/1 355/5/1 356/2/1
f 357/11/1 358/12/1 359/5/1 360/2/1
f 361/11/1 362/12/1 363/5/1 364/2/1
f 365/11/1 366/12/1 367/5/1 368/2/1
f 369/11/1 370/12/1 371/5/1 372/2/1
f 373/11/1 374/12/1 375/5/1 376/2/1
f 377/11/1 378/12/1 379/5/1 380/2/1
f 381/11/1 382/12/1 383/5/1 384/2/1
f 385/11/1 386/12/1 387/5/1 388/2/1
f 389/11/1 390/12/1 391/5/1 392/2/1

