# Tiled2Unity generated file. Do not modify by hand.
# Wavefront file for 'Chapter1_mesh_0110.obj'

# Vertices (Count = 116)
v -64 -80 0
v -80 -80 0
v -80 -64 0
v -64 -64 0
v -80 -80 0
v -96 -80 0
v -96 -64 0
v -80 -64 0
v -96 -80 0
v -112 -80 0
v -112 -64 0
v -96 -64 0
v -48 -96 0
v -64 -96 0
v -64 -80 0
v -48 -80 0
v -64 -96 0
v -80 -96 0
v -80 -80 0
v -64 -80 0
v -80 -96 0
v -96 -96 0
v -96 -80 0
v -80 -80 0
v -96 -96 0
v -112 -96 0
v -112 -80 0
v -96 -80 0
v -112 -96 0
v -128 -96 0
v -128 -80 0
v -112 -80 0
v -48 -112 0
v -64 -112 0
v -64 -96 0
v -48 -96 0
v -64 -112 0
v -80 -112 0
v -80 -96 0
v -64 -96 0
v -80 -112 0
v -96 -112 0
v -96 -96 0
v -80 -96 0
v -96 -112 0
v -112 -112 0
v -112 -96 0
v -96 -96 0
v -112 -112 0
v -128 -112 0
v -128 -96 0
v -112 -96 0
v -48 -128 0
v -64 -128 0
v -64 -112 0
v -48 -112 0
v -64 -128 0
v -80 -128 0
v -80 -112 0
v -64 -112 0
v -80 -128 0
v -96 -128 0
v -96 -112 0
v -80 -112 0
v -96 -128 0
v -112 -128 0
v -112 -112 0
v -96 -112 0
v -112 -128 0
v -128 -128 0
v -128 -112 0
v -112 -112 0
v -48 -144 0
v -64 -144 0
v -64 -128 0
v -48 -128 0
v -64 -144 0
v -80 -144 0
v -80 -128 0
v -64 -128 0
v -80 -144 0
v -96 -144 0
v -96 -128 0
v -80 -128 0
v -96 -144 0
v -112 -144 0
v -112 -128 0
v -96 -128 0
v -112 -144 0
v -128 -144 0
v -128 -128 0
v -112 -128 0
v 0 -240 0
v -16 -240 0
v -16 -224 0
v 0 -224 0
v -16 -240 0
v -32 -240 0
v -32 -224 0
v -16 -224 0
v -32 -240 0
v -48 -240 0
v -48 -224 0
v -32 -224 0
v 0 -256 0
v -16 -256 0
v -16 -240 0
v 0 -240 0
v -16 -256 0
v -32 -256 0
v -32 -240 0
v -16 -240 0
v -32 -256 0
v -48 -256 0
v -48 -240 0
v -32 -240 0

# Texture cooridinates (Count = 28)
vt 0.5 0
vt 0.6 0
vt 0.6 0.1666667
vt 0.5 0.1666667
vt 0.7 0
vt 0.7 0.1666667
vt 0.8 0
vt 0.8 0.1666667
vt 0 0.8333333
vt 0.1 0.8333333
vt 0.1 1
vt 0 1
vt 0.2 0.8333333
vt 0.2 1
vt 0.3 0.8333333
vt 0.3 1
vt 0 0.6666666
vt 0.1 0.6666666
vt 0.6 0.8333333
vt 0.7 0.8333333
vt 0.7 1
vt 0.6 1
vt 0.2 0.6666666
vt 0.3 0.6666666
vt 0 0.5
vt 0.1 0.5
vt 0.2 0.5
vt 0.3 0.5

# Normal
vn 0 0 -1

# Mesh description
g Chapter1_mesh_0110

# Faces
f 1/1/1 2/2/1 3/3/1 4/4/1
f 5/2/1 6/5/1 7/6/1 8/3/1
f 9/5/1 10/7/1 11/8/1 12/6/1
f 13/9/1 14/10/1 15/11/1 16/12/1
f 17/10/1 18/13/1 19/14/1 20/11/1
f 21/10/1 22/13/1 23/14/1 24/11/1
f 25/10/1 26/13/1 27/14/1 28/11/1
f 29/13/1 30/15/1 31/16/1 32/14/1
f 33/17/1 34/18/1 35/10/1 36/9/1
f 37/19/1 38/20/1 39/21/1 40/22/1
f 41/18/1 42/23/1 43/13/1 44/10/1
f 45/18/1 46/23/1 47/13/1 48/10/1
f 49/23/1 50/24/1 51/15/1 52/13/1
f 53/17/1 54/18/1 55/10/1 56/9/1
f 57/18/1 58/23/1 59/13/1 60/10/1
f 61/18/1 62/23/1 63/13/1 64/10/1
f 65/18/1 66/23/1 67/13/1 68/10/1
f 69/23/1 70/24/1 71/15/1 72/13/1
f 73/25/1 74/26/1 75/18/1 76/17/1
f 77/26/1 78/27/1 79/23/1 80/18/1
f 81/26/1 82/27/1 83/23/1 84/18/1
f 85/26/1 86/27/1 87/23/1 88/18/1
f 89/27/1 90/28/1 91/24/1 92/23/1
f 93/10/1 94/13/1 95/14/1 96/11/1
f 97/10/1 98/13/1 99/14/1 100/11/1
f 101/10/1 102/13/1 103/14/1 104/11/1
f 105/18/1 106/23/1 107/13/1 108/10/1
f 109/18/1 110/23/1 111/13/1 112/10/1
f 113/23/1 114/24/1 115/15/1 116/13/1

