# Tiled2Unity generated file. Do not modify by hand.
# Wavefront file for 'Chapter1_mesh_0113.obj'

# Vertices (Count = 252)
v -32 -32 0
v -48 -32 0
v -48 -16 0
v -32 -16 0
v -48 -32 0
v -64 -32 0
v -64 -16 0
v -48 -16 0
v -64 -32 0
v -80 -32 0
v -80 -16 0
v -64 -16 0
v -80 -32 0
v -96 -32 0
v -96 -16 0
v -80 -16 0
v -16 -48 0
v -32 -48 0
v -32 -32 0
v -16 -32 0
v -32 -48 0
v -48 -48 0
v -48 -32 0
v -32 -32 0
v -48 -48 0
v -64 -48 0
v -64 -32 0
v -48 -32 0
v -64 -48 0
v -80 -48 0
v -80 -32 0
v -64 -32 0
v -80 -48 0
v -96 -48 0
v -96 -32 0
v -80 -32 0
v -96 -48 0
v -112 -48 0
v -112 -32 0
v -96 -32 0
v -16 -64 0
v -32 -64 0
v -32 -48 0
v -16 -48 0
v -32 -64 0
v -48 -64 0
v -48 -48 0
v -32 -48 0
v -48 -64 0
v -64 -64 0
v -64 -48 0
v -48 -48 0
v -64 -64 0
v -80 -64 0
v -80 -48 0
v -64 -48 0
v -80 -64 0
v -96 -64 0
v -96 -48 0
v -80 -48 0
v -96 -64 0
v -112 -64 0
v -112 -48 0
v -96 -48 0
v -16 -80 0
v -32 -80 0
v -32 -64 0
v -16 -64 0
v -32 -80 0
v -48 -80 0
v -48 -64 0
v -32 -64 0
v -48 -80 0
v -64 -80 0
v -64 -64 0
v -48 -64 0
v -64 -80 0
v -80 -80 0
v -80 -64 0
v -64 -64 0
v -80 -80 0
v -96 -80 0
v -96 -64 0
v -80 -64 0
v -96 -80 0
v -112 -80 0
v -112 -64 0
v -96 -64 0
v -16 -96 0
v -32 -96 0
v -32 -80 0
v -16 -80 0
v -32 -96 0
v -48 -96 0
v -48 -80 0
v -32 -80 0
v -48 -96 0
v -64 -96 0
v -64 -80 0
v -48 -80 0
v -64 -96 0
v -80 -96 0
v -80 -80 0
v -64 -80 0
v -80 -96 0
v -96 -96 0
v -96 -80 0
v -80 -80 0
v -96 -96 0
v -112 -96 0
v -112 -80 0
v -96 -80 0
v 0 -224 0
v -16 -224 0
v -16 -208 0
v 0 -208 0
v -16 -224 0
v -32 -224 0
v -32 -208 0
v -16 -208 0
v -32 -224 0
v -48 -224 0
v -48 -208 0
v -32 -208 0
v -48 -224 0
v -64 -224 0
v -64 -208 0
v -48 -208 0
v -64 -224 0
v -80 -224 0
v -80 -208 0
v -64 -208 0
v -160 -224 0
v -176 -224 0
v -176 -208 0
v -160 -208 0
v -176 -224 0
v -192 -224 0
v -192 -208 0
v -176 -208 0
v -208 -224 0
v -224 -224 0
v -224 -208 0
v -208 -208 0
v -224 -224 0
v -240 -224 0
v -240 -208 0
v -224 -208 0
v -240 -224 0
v -256 -224 0
v -256 -208 0
v -240 -208 0
v 0 -240 0
v -16 -240 0
v -16 -224 0
v 0 -224 0
v -16 -240 0
v -32 -240 0
v -32 -224 0
v -16 -224 0
v -32 -240 0
v -48 -240 0
v -48 -224 0
v -32 -224 0
v -48 -240 0
v -64 -240 0
v -64 -224 0
v -48 -224 0
v -64 -240 0
v -80 -240 0
v -80 -224 0
v -64 -224 0
v -144 -240 0
v -160 -240 0
v -160 -224 0
v -144 -224 0
v -160 -240 0
v -176 -240 0
v -176 -224 0
v -160 -224 0
v -176 -240 0
v -192 -240 0
v -192 -224 0
v -176 -224 0
v -192 -240 0
v -208 -240 0
v -208 -224 0
v -192 -224 0
v -208 -240 0
v -224 -240 0
v -224 -224 0
v -208 -224 0
v -224 -240 0
v -240 -240 0
v -240 -224 0
v -224 -224 0
v -240 -240 0
v -256 -240 0
v -256 -224 0
v -240 -224 0
v 0 -256 0
v -16 -256 0
v -16 -240 0
v 0 -240 0
v -16 -256 0
v -32 -256 0
v -32 -240 0
v -16 -240 0
v -32 -256 0
v -48 -256 0
v -48 -240 0
v -32 -240 0
v -48 -256 0
v -64 -256 0
v -64 -240 0
v -48 -240 0
v -64 -256 0
v -80 -256 0
v -80 -240 0
v -64 -240 0
v -128 -256 0
v -144 -256 0
v -144 -240 0
v -128 -240 0
v -144 -256 0
v -160 -256 0
v -160 -240 0
v -144 -240 0
v -160 -256 0
v -176 -256 0
v -176 -240 0
v -160 -240 0
v -176 -256 0
v -192 -256 0
v -192 -240 0
v -176 -240 0
v -192 -256 0
v -208 -256 0
v -208 -240 0
v -192 -240 0
v -208 -256 0
v -224 -256 0
v -224 -240 0
v -208 -240 0
v -224 -256 0
v -240 -256 0
v -240 -240 0
v -224 -240 0
v -240 -256 0
v -256 -256 0
v -256 -240 0
v -240 -240 0

# Texture cooridinates (Count = 28)
vt 0.5 0
vt 0.6 0
vt 0.6 0.1666667
vt 0.5 0.1666667
vt 0.7 0
vt 0.7 0.1666667
vt 0.8 0
vt 0.8 0.1666667
vt 0 0.8333333
vt 0.1 0.8333333
vt 0.1 1
vt 0 1
vt 0.2 0.8333333
vt 0.2 1
vt 0.3 0.8333333
vt 0.3 1
vt 0 0.6666666
vt 0.1 0.6666666
vt 0.6 0.8333333
vt 0.7 0.8333333
vt 0.7 1
vt 0.6 1
vt 0.2 0.6666666
vt 0.3 0.6666666
vt 0 0.5
vt 0.1 0.5
vt 0.2 0.5
vt 0.3 0.5

# Normal
vn 0 0 -1

# Mesh description
g Chapter1_mesh_0113

# Faces
f 1/1/1 2/2/1 3/3/1 4/4/1
f 5/2/1 6/5/1 7/6/1 8/3/1
f 9/2/1 10/5/1 11/6/1 12/3/1
f 13/5/1 14/7/1 15/8/1 16/6/1
f 17/9/1 18/10/1 19/11/1 20/12/1
f 21/10/1 22/13/1 23/14/1 24/11/1
f 25/10/1 26/13/1 27/14/1 28/11/1
f 29/10/1 30/13/1 31/14/1 32/11/1
f 33/10/1 34/13/1 35/14/1 36/11/1
f 37/13/1 38/15/1 39/16/1 40/14/1
f 41/17/1 42/18/1 43/10/1 44/9/1
f 45/19/1 46/20/1 47/21/1 48/22/1
f 49/18/1 50/23/1 51/13/1 52/10/1
f 53/18/1 54/23/1 55/13/1 56/10/1
f 57/18/1 58/23/1 59/13/1 60/10/1
f 61/23/1 62/24/1 63/15/1 64/13/1
f 65/17/1 66/18/1 67/10/1 68/9/1
f 69/18/1 70/23/1 71/13/1 72/10/1
f 73/18/1 74/23/1 75/13/1 76/10/1
f 77/18/1 78/23/1 79/13/1 80/10/1
f 81/18/1 82/23/1 83/13/1 84/10/1
f 85/23/1 86/24/1 87/15/1 88/13/1
f 89/25/1 90/26/1 91/18/1 92/17/1
f 93/26/1 94/27/1 95/23/1 96/18/1
f 97/26/1 98/27/1 99/23/1 100/18/1
f 101/26/1 102/27/1 103/23/1 104/18/1
f 105/26/1 106/27/1 107/23/1 108/18/1
f 109/27/1 110/28/1 111/24/1 112/23/1
f 113/10/1 114/13/1 115/14/1 116/11/1
f 117/10/1 118/13/1 119/14/1 120/11/1
f 121/10/1 122/13/1 123/14/1 124/11/1
f 125/10/1 126/13/1 127/14/1 128/11/1
f 129/13/1 130/15/1 131/16/1 132/14/1
f 133/2/1 134/5/1 135/6/1 136/3/1
f 137/5/1 138/7/1 139/8/1 140/6/1
f 141/9/1 142/10/1 143/11/1 144/12/1
f 145/10/1 146/13/1 147/14/1 148/11/1
f 149/10/1 150/13/1 151/14/1 152/11/1
f 153/19/1 154/20/1 155/21/1 156/22/1
f 157/18/1 158/23/1 159/13/1 160/10/1
f 161/18/1 162/23/1 163/13/1 164/10/1
f 165/18/1 166/23/1 167/13/1 168/10/1
f 169/23/1 170/24/1 171/15/1 172/13/1
f 173/9/1 174/10/1 175/11/1 176/12/1
f 177/10/1 178/13/1 179/14/1 180/11/1
f 181/10/1 182/13/1 183/14/1 184/11/1
f 185/10/1 186/13/1 187/14/1 188/11/1
f 189/10/1 190/13/1 191/14/1 192/11/1
f 193/19/1 194/20/1 195/21/1 196/22/1
f 197/18/1 198/23/1 199/13/1 200/10/1
f 201/18/1 202/23/1 203/13/1 204/10/1
f 205/18/1 206/23/1 207/13/1 208/10/1
f 209/18/1 210/23/1 211/13/1 212/10/1
f 213/18/1 214/23/1 215/13/1 216/10/1
f 217/27/1 218/28/1 219/24/1 220/23/1
f 221/9/1 222/10/1 223/11/1 224/12/1
f 225/10/1 226/13/1 227/14/1 228/11/1
f 229/19/1 230/20/1 231/21/1 232/22/1
f 233/18/1 234/23/1 235/13/1 236/10/1
f 237/18/1 238/23/1 239/13/1 240/10/1
f 241/18/1 242/23/1 243/13/1 244/10/1
f 245/18/1 246/23/1 247/13/1 248/10/1
f 249/18/1 250/23/1 251/13/1 252/10/1

