# Tiled2Unity generated file. Do not modify by hand.
# Wavefront file for 'Chapter1_mesh_0117.obj'

# Vertices (Count = 12)
v -240 -64 0
v -272 -64 0
v -272 -32 0
v -240 -32 0
v -240 -96 0
v -272 -96 0
v -272 -64 0
v -240 -64 0
v -240 -128 0
v -272 -128 0
v -272 -96 0
v -240 -96 0

# Texture cooridinates (Count = 8)
vt 0.125 0.5
vt 0.25 0.5
vt 0.25 0.75
vt 0.125 0.75
vt 0.125 0.25
vt 0.25 0.25
vt 0.125 0
vt 0.25 0

# Normal
vn 0 0 -1

# Mesh description
g Chapter1_mesh_0117

# Faces
f 1/1/1 2/2/1 3/3/1 4/4/1
f 5/5/1 6/6/1 7/2/1 8/1/1
f 9/7/1 10/8/1 11/6/1 12/5/1

