# Tiled2Unity generated file. Do not modify by hand.
# Wavefront file for 'Chapter1_mesh_0095.obj'

# Vertices (Count = 12)
v -64 -80 0
v -320 -80 0
v -320 176 0
v -64 176 0
v -64 -96 0
v -320 -96 0
v -320 160 0
v -64 160 0
v -208 -96 0
v -464 -96 0
v -464 160 0
v -208 160 0

# Texture cooridinates (Count = 6)
vt 0.5 0.2
vt 1 0.2
vt 1 1
vt 0.5 1
vt 0 0.2
vt 0 1

# Normal
vn 0 0 -1

# Mesh description
g Chapter1_mesh_0095

# Faces
f 1/1/1 2/2/1 3/3/1 4/4/1
f 5/1/1 6/2/1 7/3/1 8/4/1
f 9/5/1 10/1/1 11/4/1 12/6/1

