# Tiled2Unity generated file. Do not modify by hand.
# Wavefront file for 'Chapter1_mesh_0089.obj'

# Vertices (Count = 32)
v -192 -224 0
v -448 -224 0
v -448 32 0
v -192 32 0
v 0 -240 0
v -256 -240 0
v -256 16 0
v 0 16 0
v -176 -240 0
v -432 -240 0
v -432 16 0
v -176 16 0
v -192 -240 0
v -448 -240 0
v -448 16 0
v -192 16 0
v -208 -240 0
v -464 -240 0
v -464 16 0
v -208 16 0
v -160 -256 0
v -416 -256 0
v -416 0 0
v -160 0 0
v -176 -256 0
v -432 -256 0
v -432 0 0
v -176 0 0
v -208 -256 0
v -464 -256 0
v -464 0 0
v -208 0 0

# Texture cooridinates (Count = 6)
vt 0 0.2
vt 0.5 0.2
vt 0.5 1
vt 0 1
vt 1 0.2
vt 1 1

# Normal
vn 0 0 -1

# Mesh description
g Chapter1_mesh_0089

# Faces
f 1/1/1 2/2/1 3/3/1 4/4/1
f 5/2/1 6/5/1 7/6/1 8/3/1
f 9/1/1 10/2/1 11/3/1 12/4/1
f 13/1/1 14/2/1 15/3/1 16/4/1
f 17/1/1 18/2/1 19/3/1 20/4/1
f 21/1/1 22/2/1 23/3/1 24/4/1
f 25/1/1 26/2/1 27/3/1 28/4/1
f 29/1/1 30/2/1 31/3/1 32/4/1

