# Tiled2Unity generated file. Do not modify by hand.
# Wavefront file for 'Chapter1_mesh_0147.obj'

# Vertices (Count = 376)
v -16 -16 0
v -32 -16 0
v -32 0 0
v -16 0 0
v -32 -16 0
v -48 -16 0
v -48 0 0
v -32 0 0
v -48 -16 0
v -64 -16 0
v -64 0 0
v -48 0 0
v -64 -16 0
v -80 -16 0
v -80 0 0
v -64 0 0
v -80 -16 0
v -96 -16 0
v -96 0 0
v -80 0 0
v -96 -16 0
v -112 -16 0
v -112 0 0
v -96 0 0
v -112 -16 0
v -128 -16 0
v -128 0 0
v -112 0 0
v -128 -16 0
v -144 -16 0
v -144 0 0
v -128 0 0
v -144 -16 0
v -160 -16 0
v -160 0 0
v -144 0 0
v -160 -16 0
v -176 -16 0
v -176 0 0
v -160 0 0
v -176 -16 0
v -192 -16 0
v -192 0 0
v -176 0 0
v -192 -16 0
v -208 -16 0
v -208 0 0
v -192 0 0
v -208 -16 0
v -224 -16 0
v -224 0 0
v -208 0 0
v -224 -16 0
v -240 -16 0
v -240 0 0
v -224 0 0
v -240 -16 0
v -256 -16 0
v -256 0 0
v -240 0 0
v -16 -32 0
v -32 -32 0
v -32 -16 0
v -16 -16 0
v -32 -32 0
v -48 -32 0
v -48 -16 0
v -32 -16 0
v -48 -32 0
v -64 -32 0
v -64 -16 0
v -48 -16 0
v -64 -32 0
v -80 -32 0
v -80 -16 0
v -64 -16 0
v -80 -32 0
v -96 -32 0
v -96 -16 0
v -80 -16 0
v -96 -32 0
v -112 -32 0
v -112 -16 0
v -96 -16 0
v -112 -32 0
v -128 -32 0
v -128 -16 0
v -112 -16 0
v -128 -32 0
v -144 -32 0
v -144 -16 0
v -128 -16 0
v -144 -32 0
v -160 -32 0
v -160 -16 0
v -144 -16 0
v -160 -32 0
v -176 -32 0
v -176 -16 0
v -160 -16 0
v -176 -32 0
v -192 -32 0
v -192 -16 0
v -176 -16 0
v -192 -32 0
v -208 -32 0
v -208 -16 0
v -192 -16 0
v -208 -32 0
v -224 -32 0
v -224 -16 0
v -208 -16 0
v -224 -32 0
v -240 -32 0
v -240 -16 0
v -224 -16 0
v -240 -32 0
v -256 -32 0
v -256 -16 0
v -240 -16 0
v 0 -48 0
v -16 -48 0
v -16 -32 0
v 0 -32 0
v -16 -48 0
v -32 -48 0
v -32 -32 0
v -16 -32 0
v -32 -48 0
v -48 -48 0
v -48 -32 0
v -32 -32 0
v -48 -48 0
v -64 -48 0
v -64 -32 0
v -48 -32 0
v -64 -48 0
v -80 -48 0
v -80 -32 0
v -64 -32 0
v -80 -48 0
v -96 -48 0
v -96 -32 0
v -80 -32 0
v -96 -48 0
v -112 -48 0
v -112 -32 0
v -96 -32 0
v -112 -48 0
v -128 -48 0
v -128 -32 0
v -112 -32 0
v -128 -48 0
v -144 -48 0
v -144 -32 0
v -128 -32 0
v -144 -48 0
v -160 -48 0
v -160 -32 0
v -144 -32 0
v -160 -48 0
v -176 -48 0
v -176 -32 0
v -160 -32 0
v -176 -48 0
v -192 -48 0
v -192 -32 0
v -176 -32 0
v -192 -48 0
v -208 -48 0
v -208 -32 0
v -192 -32 0
v -208 -48 0
v -224 -48 0
v -224 -32 0
v -208 -32 0
v -224 -48 0
v -240 -48 0
v -240 -32 0
v -224 -32 0
v -240 -48 0
v -256 -48 0
v -256 -32 0
v -240 -32 0
v 0 -64 0
v -16 -64 0
v -16 -48 0
v 0 -48 0
v -16 -64 0
v -32 -64 0
v -32 -48 0
v -16 -48 0
v -32 -64 0
v -48 -64 0
v -48 -48 0
v -32 -48 0
v -48 -64 0
v -64 -64 0
v -64 -48 0
v -48 -48 0
v -64 -64 0
v -80 -64 0
v -80 -48 0
v -64 -48 0
v -80 -64 0
v -96 -64 0
v -96 -48 0
v -80 -48 0
v -96 -64 0
v -112 -64 0
v -112 -48 0
v -96 -48 0
v -112 -64 0
v -128 -64 0
v -128 -48 0
v -112 -48 0
v -128 -64 0
v -144 -64 0
v -144 -48 0
v -128 -48 0
v -144 -64 0
v -160 -64 0
v -160 -48 0
v -144 -48 0
v -160 -64 0
v -176 -64 0
v -176 -48 0
v -160 -48 0
v -176 -64 0
v -192 -64 0
v -192 -48 0
v -176 -48 0
v -192 -64 0
v -208 -64 0
v -208 -48 0
v -192 -48 0
v -208 -64 0
v -224 -64 0
v -224 -48 0
v -208 -48 0
v -224 -64 0
v -240 -64 0
v -240 -48 0
v -224 -48 0
v -240 -64 0
v -256 -64 0
v -256 -48 0
v -240 -48 0
v 0 -80 0
v -16 -80 0
v -16 -64 0
v 0 -64 0
v -16 -80 0
v -32 -80 0
v -32 -64 0
v -16 -64 0
v -32 -80 0
v -48 -80 0
v -48 -64 0
v -32 -64 0
v -48 -80 0
v -64 -80 0
v -64 -64 0
v -48 -64 0
v -64 -80 0
v -80 -80 0
v -80 -64 0
v -64 -64 0
v -80 -80 0
v -96 -80 0
v -96 -64 0
v -80 -64 0
v -96 -80 0
v -112 -80 0
v -112 -64 0
v -96 -64 0
v -112 -80 0
v -128 -80 0
v -128 -64 0
v -112 -64 0
v -128 -80 0
v -144 -80 0
v -144 -64 0
v -128 -64 0
v -144 -80 0
v -160 -80 0
v -160 -64 0
v -144 -64 0
v -160 -80 0
v -176 -80 0
v -176 -64 0
v -160 -64 0
v -176 -80 0
v -192 -80 0
v -192 -64 0
v -176 -64 0
v -192 -80 0
v -208 -80 0
v -208 -64 0
v -192 -64 0
v -208 -80 0
v -224 -80 0
v -224 -64 0
v -208 -64 0
v -224 -80 0
v -240 -80 0
v -240 -64 0
v -224 -64 0
v -240 -80 0
v -256 -80 0
v -256 -64 0
v -240 -64 0
v 0 -96 0
v -16 -96 0
v -16 -80 0
v 0 -80 0
v -16 -96 0
v -32 -96 0
v -32 -80 0
v -16 -80 0
v -32 -96 0
v -48 -96 0
v -48 -80 0
v -32 -80 0
v -48 -96 0
v -64 -96 0
v -64 -80 0
v -48 -80 0
v -64 -96 0
v -80 -96 0
v -80 -80 0
v -64 -80 0
v -80 -96 0
v -96 -96 0
v -96 -80 0
v -80 -80 0
v -96 -96 0
v -112 -96 0
v -112 -80 0
v -96 -80 0
v -112 -96 0
v -128 -96 0
v -128 -80 0
v -112 -80 0
v -128 -96 0
v -144 -96 0
v -144 -80 0
v -128 -80 0
v -144 -96 0
v -160 -96 0
v -160 -80 0
v -144 -80 0
v -160 -96 0
v -176 -96 0
v -176 -80 0
v -160 -80 0
v -176 -96 0
v -192 -96 0
v -192 -80 0
v -176 -80 0
v -192 -96 0
v -208 -96 0
v -208 -80 0
v -192 -80 0
v -208 -96 0
v -224 -96 0
v -224 -80 0
v -208 -80 0
v -224 -96 0
v -240 -96 0
v -240 -80 0
v -224 -80 0
v -240 -96 0
v -256 -96 0
v -256 -80 0
v -240 -80 0

# Texture cooridinates (Count = 17)
vt 0 0.6666666
vt 0.1 0.6666666
vt 0.1 0.8333333
vt 0 0.8333333
vt 0.2 0.6666666
vt 0.2 0.8333333
vt 0.1 1
vt 0 1
vt 0.6 0.8333333
vt 0.7 0.8333333
vt 0.7 1
vt 0.6 1
vt 0.2 1
vt 0.3 0.5
vt 0.4 0.5
vt 0.4 0.6666666
vt 0.3 0.6666666

# Normal
vn 0 0 -1

# Mesh description
g Chapter1_mesh_0147

# Faces
f 1/1/1 2/2/1 3/3/1 4/4/1
f 5/2/1 6/5/1 7/6/1 8/3/1
f 9/2/1 10/5/1 11/6/1 12/3/1
f 13/2/1 14/5/1 15/6/1 16/3/1
f 17/2/1 18/5/1 19/6/1 20/3/1
f 21/2/1 22/5/1 23/6/1 24/3/1
f 25/2/1 26/5/1 27/6/1 28/3/1
f 29/2/1 30/5/1 31/6/1 32/3/1
f 33/2/1 34/5/1 35/6/1 36/3/1
f 37/2/1 38/5/1 39/6/1 40/3/1
f 41/2/1 42/5/1 43/6/1 44/3/1
f 45/2/1 46/5/1 47/6/1 48/3/1
f 49/2/1 50/5/1 51/6/1 52/3/1
f 53/2/1 54/5/1 55/6/1 56/3/1
f 57/2/1 58/5/1 59/6/1 60/3/1
f 61/1/1 62/2/1 63/3/1 64/4/1
f 65/2/1 66/5/1 67/6/1 68/3/1
f 69/2/1 70/5/1 71/6/1 72/3/1
f 73/2/1 74/5/1 75/6/1 76/3/1
f 77/2/1 78/5/1 79/6/1 80/3/1
f 81/2/1 82/5/1 83/6/1 84/3/1
f 85/2/1 86/5/1 87/6/1 88/3/1
f 89/2/1 90/5/1 91/6/1 92/3/1
f 93/2/1 94/5/1 95/6/1 96/3/1
f 97/2/1 98/5/1 99/6/1 100/3/1
f 101/2/1 102/5/1 103/6/1 104/3/1
f 105/2/1 106/5/1 107/6/1 108/3/1
f 109/2/1 110/5/1 111/6/1 112/3/1
f 113/2/1 114/5/1 115/6/1 116/3/1
f 117/2/1 118/5/1 119/6/1 120/3/1
f 121/4/1 122/3/1 123/7/1 124/8/1
f 125/9/1 126/10/1 127/11/1 128/12/1
f 129/2/1 130/5/1 131/6/1 132/3/1
f 133/2/1 134/5/1 135/6/1 136/3/1
f 137/2/1 138/5/1 139/6/1 140/3/1
f 141/2/1 142/5/1 143/6/1 144/3/1
f 145/2/1 146/5/1 147/6/1 148/3/1
f 149/2/1 150/5/1 151/6/1 152/3/1
f 153/2/1 154/5/1 155/6/1 156/3/1
f 157/2/1 158/5/1 159/6/1 160/3/1
f 161/2/1 162/5/1 163/6/1 164/3/1
f 165/2/1 166/5/1 167/6/1 168/3/1
f 169/2/1 170/5/1 171/6/1 172/3/1
f 173/2/1 174/5/1 175/6/1 176/3/1
f 177/2/1 178/5/1 179/6/1 180/3/1
f 181/2/1 182/5/1 183/6/1 184/3/1
f 185/3/1 186/6/1 187/13/1 188/7/1
f 189/9/1 190/10/1 191/11/1 192/12/1
f 193/2/1 194/5/1 195/6/1 196/3/1
f 197/2/1 198/5/1 199/6/1 200/3/1
f 201/2/1 202/5/1 203/6/1 204/3/1
f 205/2/1 206/5/1 207/6/1 208/3/1
f 209/2/1 210/5/1 211/6/1 212/3/1
f 213/2/1 214/5/1 215/6/1 216/3/1
f 217/2/1 218/5/1 219/6/1 220/3/1
f 221/2/1 222/5/1 223/6/1 224/3/1
f 225/2/1 226/5/1 227/6/1 228/3/1
f 229/2/1 230/5/1 231/6/1 232/3/1
f 233/2/1 234/5/1 235/6/1 236/3/1
f 237/2/1 238/5/1 239/6/1 240/3/1
f 241/2/1 242/5/1 243/6/1 244/3/1
f 245/2/1 246/5/1 247/6/1 248/3/1
f 249/2/1 250/5/1 251/6/1 252/3/1
f 253/2/1 254/5/1 255/6/1 256/3/1
f 257/2/1 258/5/1 259/6/1 260/3/1
f 261/2/1 262/5/1 263/6/1 264/3/1
f 265/2/1 266/5/1 267/6/1 268/3/1
f 269/2/1 270/5/1 271/6/1 272/3/1
f 273/2/1 274/5/1 275/6/1 276/3/1
f 277/2/1 278/5/1 279/6/1 280/3/1
f 281/2/1 282/5/1 283/6/1 284/3/1
f 285/2/1 286/5/1 287/6/1 288/3/1
f 289/2/1 290/5/1 291/6/1 292/3/1
f 293/2/1 294/5/1 295/6/1 296/3/1
f 297/2/1 298/5/1 299/6/1 300/3/1
f 301/2/1 302/5/1 303/6/1 304/3/1
f 305/2/1 306/5/1 307/6/1 308/3/1
f 309/2/1 310/5/1 311/6/1 312/3/1
f 313/2/1 314/5/1 315/6/1 316/3/1
f 317/14/1 318/15/1 319/16/1 320/17/1
f 321/2/1 322/5/1 323/6/1 324/3/1
f 325/2/1 326/5/1 327/6/1 328/3/1
f 329/2/1 330/5/1 331/6/1 332/3/1
f 333/2/1 334/5/1 335/6/1 336/3/1
f 337/2/1 338/5/1 339/6/1 340/3/1
f 341/2/1 342/5/1 343/6/1 344/3/1
f 345/2/1 346/5/1 347/6/1 348/3/1
f 349/2/1 350/5/1 351/6/1 352/3/1
f 353/2/1 354/5/1 355/6/1 356/3/1
f 357/2/1 358/5/1 359/6/1 360/3/1
f 361/2/1 362/5/1 363/6/1 364/3/1
f 365/14/1 366/15/1 367/16/1 368/17/1
f 369/2/1 370/5/1 371/6/1 372/3/1
f 373/2/1 374/5/1 375/6/1 376/3/1

