# Tiled2Unity generated file. Do not modify by hand.
# Wavefront file for 'Chapter1_mesh_0098.obj'

# Vertices (Count = 56)
v -16 -48 0
v -272 -48 0
v -272 208 0
v -16 208 0
v -32 -48 0
v -288 -48 0
v -288 208 0
v -32 208 0
v -16 -64 0
v -272 -64 0
v -272 192 0
v -16 192 0
v -32 -64 0
v -288 -64 0
v -288 192 0
v -32 192 0
v -16 -80 0
v -272 -80 0
v -272 176 0
v -16 176 0
v -96 -80 0
v -352 -80 0
v -352 176 0
v -96 176 0
v -112 -80 0
v -368 -80 0
v -368 176 0
v -112 176 0
v -16 -96 0
v -272 -96 0
v -272 160 0
v -16 160 0
v -32 -96 0
v -288 -96 0
v -288 160 0
v -32 160 0
v -48 -96 0
v -304 -96 0
v -304 160 0
v -48 160 0
v -64 -96 0
v -320 -96 0
v -320 160 0
v -64 160 0
v -80 -96 0
v -336 -96 0
v -336 160 0
v -80 160 0
v -128 -96 0
v -384 -96 0
v -384 160 0
v -128 160 0
v -208 -96 0
v -464 -96 0
v -464 160 0
v -208 160 0

# Texture cooridinates (Count = 6)
vt 0 0.2
vt 0.5 0.2
vt 0.5 1
vt 0 1
vt 1 0.2
vt 1 1

# Normal
vn 0 0 -1

# Mesh description
g Chapter1_mesh_0098

# Faces
f 1/1/1 2/2/1 3/3/1 4/4/1
f 5/1/1 6/2/1 7/3/1 8/4/1
f 9/1/1 10/2/1 11/3/1 12/4/1
f 13/1/1 14/2/1 15/3/1 16/4/1
f 17/1/1 18/2/1 19/3/1 20/4/1
f 21/1/1 22/2/1 23/3/1 24/4/1
f 25/1/1 26/2/1 27/3/1 28/4/1
f 29/1/1 30/2/1 31/3/1 32/4/1
f 33/1/1 34/2/1 35/3/1 36/4/1
f 37/1/1 38/2/1 39/3/1 40/4/1
f 41/1/1 42/2/1 43/3/1 44/4/1
f 45/1/1 46/2/1 47/3/1 48/4/1
f 49/1/1 50/2/1 51/3/1 52/4/1
f 53/2/1 54/5/1 55/6/1 56/3/1

