# Tiled2Unity generated file. Do not modify by hand.
# Wavefront file for 'Chapter1_mesh_0123.obj'

# Vertices (Count = 24)
v -112 -176 0
v -144 -176 0
v -144 -144 0
v -112 -144 0
v -144 -176 0
v -176 -176 0
v -176 -144 0
v -144 -144 0
v -112 -208 0
v -144 -208 0
v -144 -176 0
v -112 -176 0
v -144 -208 0
v -176 -208 0
v -176 -176 0
v -144 -176 0
v -112 -240 0
v -144 -240 0
v -144 -208 0
v -112 -208 0
v -144 -240 0
v -176 -240 0
v -176 -208 0
v -144 -208 0

# Texture cooridinates (Count = 12)
vt 0.625 0.75
vt 0.75 0.75
vt 0.75 1
vt 0.625 1
vt 0.875 0.75
vt 0.875 1
vt 0.625 0.5
vt 0.75 0.5
vt 0.875 0.5
vt 0.625 0.25
vt 0.75 0.25
vt 0.875 0.25

# Normal
vn 0 0 -1

# Mesh description
g Chapter1_mesh_0123

# Faces
f 1/1/1 2/2/1 3/3/1 4/4/1
f 5/2/1 6/5/1 7/6/1 8/3/1
f 9/7/1 10/8/1 11/2/1 12/1/1
f 13/8/1 14/9/1 15/5/1 16/2/1
f 17/10/1 18/11/1 19/8/1 20/7/1
f 21/11/1 22/12/1 23/9/1 24/8/1

