# Tiled2Unity generated file. Do not modify by hand.
# Wavefront file for 'Chapter1_mesh_0116.obj'

# Vertices (Count = 372)
v -32 -128 0
v -48 -128 0
v -48 -112 0
v -32 -112 0
v -48 -128 0
v -64 -128 0
v -64 -112 0
v -48 -112 0
v -64 -128 0
v -80 -128 0
v -80 -112 0
v -64 -112 0
v -80 -128 0
v -96 -128 0
v -96 -112 0
v -80 -112 0
v -96 -128 0
v -112 -128 0
v -112 -112 0
v -96 -112 0
v -112 -128 0
v -128 -128 0
v -128 -112 0
v -112 -112 0
v -144 -128 0
v -160 -128 0
v -160 -112 0
v -144 -112 0
v 0 -144 0
v -16 -144 0
v -16 -128 0
v 0 -128 0
v -16 -144 0
v -32 -144 0
v -32 -128 0
v -16 -128 0
v -32 -144 0
v -48 -144 0
v -48 -128 0
v -32 -128 0
v -48 -144 0
v -64 -144 0
v -64 -128 0
v -48 -128 0
v -64 -144 0
v -80 -144 0
v -80 -128 0
v -64 -128 0
v -80 -144 0
v -96 -144 0
v -96 -128 0
v -80 -128 0
v -96 -144 0
v -112 -144 0
v -112 -128 0
v -96 -128 0
v -112 -144 0
v -128 -144 0
v -128 -128 0
v -112 -128 0
v -128 -144 0
v -144 -144 0
v -144 -128 0
v -128 -128 0
v -144 -144 0
v -160 -144 0
v -160 -128 0
v -144 -128 0
v -160 -144 0
v -176 -144 0
v -176 -128 0
v -160 -128 0
v -176 -144 0
v -192 -144 0
v -192 -128 0
v -176 -128 0
v -192 -144 0
v -208 -144 0
v -208 -128 0
v -192 -128 0
v -208 -144 0
v -224 -144 0
v -224 -128 0
v -208 -128 0
v -224 -144 0
v -240 -144 0
v -240 -128 0
v -224 -128 0
v -240 -144 0
v -256 -144 0
v -256 -128 0
v -240 -128 0
v 0 -160 0
v -16 -160 0
v -16 -144 0
v 0 -144 0
v -16 -160 0
v -32 -160 0
v -32 -144 0
v -16 -144 0
v -32 -160 0
v -48 -160 0
v -48 -144 0
v -32 -144 0
v -48 -160 0
v -64 -160 0
v -64 -144 0
v -48 -144 0
v -64 -160 0
v -80 -160 0
v -80 -144 0
v -64 -144 0
v -80 -160 0
v -96 -160 0
v -96 -144 0
v -80 -144 0
v -96 -160 0
v -112 -160 0
v -112 -144 0
v -96 -144 0
v -112 -160 0
v -128 -160 0
v -128 -144 0
v -112 -144 0
v -128 -160 0
v -144 -160 0
v -144 -144 0
v -128 -144 0
v -144 -160 0
v -160 -160 0
v -160 -144 0
v -144 -144 0
v 0 -176 0
v -16 -176 0
v -16 -160 0
v 0 -160 0
v -16 -176 0
v -32 -176 0
v -32 -160 0
v -16 -160 0
v -32 -176 0
v -48 -176 0
v -48 -160 0
v -32 -160 0
v -48 -176 0
v -64 -176 0
v -64 -160 0
v -48 -160 0
v -64 -176 0
v -80 -176 0
v -80 -160 0
v -64 -160 0
v -80 -176 0
v -96 -176 0
v -96 -160 0
v -80 -160 0
v -96 -176 0
v -112 -176 0
v -112 -160 0
v -96 -160 0
v -112 -176 0
v -128 -176 0
v -128 -160 0
v -112 -160 0
v -128 -176 0
v -144 -176 0
v -144 -160 0
v -128 -160 0
v -144 -176 0
v -160 -176 0
v -160 -160 0
v -144 -160 0
v 0 -192 0
v -16 -192 0
v -16 -176 0
v 0 -176 0
v -16 -192 0
v -32 -192 0
v -32 -176 0
v -16 -176 0
v -32 -192 0
v -48 -192 0
v -48 -176 0
v -32 -176 0
v -48 -192 0
v -64 -192 0
v -64 -176 0
v -48 -176 0
v -64 -192 0
v -80 -192 0
v -80 -176 0
v -64 -176 0
v -80 -192 0
v -96 -192 0
v -96 -176 0
v -80 -176 0
v -96 -192 0
v -112 -192 0
v -112 -176 0
v -96 -176 0
v -112 -192 0
v -128 -192 0
v -128 -176 0
v -112 -176 0
v -128 -192 0
v -144 -192 0
v -144 -176 0
v -128 -176 0
v -144 -192 0
v -160 -192 0
v -160 -176 0
v -144 -176 0
v 0 -208 0
v -16 -208 0
v -16 -192 0
v 0 -192 0
v -16 -208 0
v -32 -208 0
v -32 -192 0
v -16 -192 0
v -32 -208 0
v -48 -208 0
v -48 -192 0
v -32 -192 0
v -48 -208 0
v -64 -208 0
v -64 -192 0
v -48 -192 0
v -64 -208 0
v -80 -208 0
v -80 -192 0
v -64 -192 0
v -80 -208 0
v -96 -208 0
v -96 -192 0
v -80 -192 0
v -96 -208 0
v -112 -208 0
v -112 -192 0
v -96 -192 0
v -112 -208 0
v -128 -208 0
v -128 -192 0
v -112 -192 0
v -128 -208 0
v -144 -208 0
v -144 -192 0
v -128 -192 0
v -144 -208 0
v -160 -208 0
v -160 -192 0
v -144 -192 0
v 0 -224 0
v -16 -224 0
v -16 -208 0
v 0 -208 0
v -16 -224 0
v -32 -224 0
v -32 -208 0
v -16 -208 0
v -32 -224 0
v -48 -224 0
v -48 -208 0
v -32 -208 0
v -48 -224 0
v -64 -224 0
v -64 -208 0
v -48 -208 0
v -64 -224 0
v -80 -224 0
v -80 -208 0
v -64 -208 0
v -80 -224 0
v -96 -224 0
v -96 -208 0
v -80 -208 0
v -96 -224 0
v -112 -224 0
v -112 -208 0
v -96 -208 0
v -112 -224 0
v -128 -224 0
v -128 -208 0
v -112 -208 0
v -128 -224 0
v -144 -224 0
v -144 -208 0
v -128 -208 0
v -144 -224 0
v -160 -224 0
v -160 -208 0
v -144 -208 0
v 0 -240 0
v -16 -240 0
v -16 -224 0
v 0 -224 0
v -16 -240 0
v -32 -240 0
v -32 -224 0
v -16 -224 0
v -32 -240 0
v -48 -240 0
v -48 -224 0
v -32 -224 0
v -48 -240 0
v -64 -240 0
v -64 -224 0
v -48 -224 0
v -64 -240 0
v -80 -240 0
v -80 -224 0
v -64 -224 0
v -80 -240 0
v -96 -240 0
v -96 -224 0
v -80 -224 0
v -96 -240 0
v -112 -240 0
v -112 -224 0
v -96 -224 0
v -112 -240 0
v -128 -240 0
v -128 -224 0
v -112 -224 0
v -128 -240 0
v -144 -240 0
v -144 -224 0
v -128 -224 0
v -144 -240 0
v -160 -240 0
v -160 -224 0
v -144 -224 0
v 0 -256 0
v -16 -256 0
v -16 -240 0
v 0 -240 0
v -16 -256 0
v -32 -256 0
v -32 -240 0
v -16 -240 0
v -32 -256 0
v -48 -256 0
v -48 -240 0
v -32 -240 0
v -48 -256 0
v -64 -256 0
v -64 -240 0
v -48 -240 0
v -64 -256 0
v -80 -256 0
v -80 -240 0
v -64 -240 0
v -80 -256 0
v -96 -256 0
v -96 -240 0
v -80 -240 0
v -96 -256 0
v -112 -256 0
v -112 -240 0
v -96 -240 0
v -112 -256 0
v -128 -256 0
v -128 -240 0
v -112 -240 0
v -128 -256 0
v -144 -256 0
v -144 -240 0
v -128 -240 0
v -144 -256 0
v -160 -256 0
v -160 -240 0
v -144 -240 0

# Texture cooridinates (Count = 21)
vt 0.6 0
vt 0.7 0
vt 0.7 0.1666667
vt 0.6 0.1666667
vt 0.8 0
vt 0.8 0.1666667
vt 0.9 0.1666667
vt 0.9 0.3333333
vt 0.8 0.3333333
vt 0.1 0.8333333
vt 0.2 0.8333333
vt 0.2 1
vt 0.1 1
vt 0.7 0.3333333
vt 0.1 0.6666666
vt 0.2 0.6666666
vt 0.3 0.6666666
vt 0.3 0.8333333
vt 0.3 0.5
vt 0.4 0.5
vt 0.4 0.6666666

# Normal
vn 0 0 -1

# Mesh description
g Chapter1_mesh_0116

# Faces
f 1/1/1 2/2/1 3/3/1 4/4/1
f 5/1/1 6/2/1 7/3/1 8/4/1
f 9/1/1 10/2/1 11/3/1 12/4/1
f 13/1/1 14/2/1 15/3/1 16/4/1
f 17/1/1 18/2/1 19/3/1 20/4/1
f 21/2/1 22/5/1 23/6/1 24/3/1
f 25/6/1 26/7/1 27/8/1 28/9/1
f 29/10/1 30/11/1 31/12/1 32/13/1
f 33/10/1 34/11/1 35/12/1 36/13/1
f 37/10/1 38/11/1 39/12/1 40/13/1
f 41/10/1 42/11/1 43/12/1 44/13/1
f 45/10/1 46/11/1 47/12/1 48/13/1
f 49/10/1 50/11/1 51/12/1 52/13/1
f 53/10/1 54/11/1 55/12/1 56/13/1
f 57/10/1 58/11/1 59/12/1 60/13/1
f 61/10/1 62/11/1 63/12/1 64/13/1
f 65/10/1 66/11/1 67/12/1 68/13/1
f 69/3/1 70/6/1 71/9/1 72/14/1
f 73/3/1 74/6/1 75/9/1 76/14/1
f 77/3/1 78/6/1 79/9/1 80/14/1
f 81/3/1 82/6/1 83/9/1 84/14/1
f 85/3/1 86/6/1 87/9/1 88/14/1
f 89/3/1 90/6/1 91/9/1 92/14/1
f 93/15/1 94/16/1 95/11/1 96/10/1
f 97/15/1 98/16/1 99/11/1 100/10/1
f 101/15/1 102/16/1 103/11/1 104/10/1
f 105/15/1 106/16/1 107/11/1 108/10/1
f 109/15/1 110/16/1 111/11/1 112/10/1
f 113/15/1 114/16/1 115/11/1 116/10/1
f 117/15/1 118/16/1 119/11/1 120/10/1
f 121/15/1 122/16/1 123/11/1 124/10/1
f 125/15/1 126/16/1 127/11/1 128/10/1
f 129/16/1 130/17/1 131/18/1 132/11/1
f 133/15/1 134/16/1 135/11/1 136/10/1
f 137/15/1 138/16/1 139/11/1 140/10/1
f 141/15/1 142/16/1 143/11/1 144/10/1
f 145/15/1 146/16/1 147/11/1 148/10/1
f 149/15/1 150/16/1 151/11/1 152/10/1
f 153/15/1 154/16/1 155/11/1 156/10/1
f 157/15/1 158/16/1 159/11/1 160/10/1
f 161/15/1 162/16/1 163/11/1 164/10/1
f 165/15/1 166/16/1 167/11/1 168/10/1
f 169/16/1 170/17/1 171/18/1 172/11/1
f 173/15/1 174/16/1 175/11/1 176/10/1
f 177/15/1 178/16/1 179/11/1 180/10/1
f 181/19/1 182/20/1 183/21/1 184/17/1
f 185/15/1 186/16/1 187/11/1 188/10/1
f 189/15/1 190/16/1 191/11/1 192/10/1
f 193/15/1 194/16/1 195/11/1 196/10/1
f 197/15/1 198/16/1 199/11/1 200/10/1
f 201/15/1 202/16/1 203/11/1 204/10/1
f 205/15/1 206/16/1 207/11/1 208/10/1
f 209/16/1 210/17/1 211/18/1 212/11/1
f 213/15/1 214/16/1 215/11/1 216/10/1
f 217/15/1 218/16/1 219/11/1 220/10/1
f 221/15/1 222/16/1 223/11/1 224/10/1
f 225/15/1 226/16/1 227/11/1 228/10/1
f 229/15/1 230/16/1 231/11/1 232/10/1
f 233/15/1 234/16/1 235/11/1 236/10/1
f 237/15/1 238/16/1 239/11/1 240/10/1
f 241/15/1 242/16/1 243/11/1 244/10/1
f 245/15/1 246/16/1 247/11/1 248/10/1
f 249/16/1 250/17/1 251/18/1 252/11/1
f 253/15/1 254/16/1 255/11/1 256/10/1
f 257/15/1 258/16/1 259/11/1 260/10/1
f 261/15/1 262/16/1 263/11/1 264/10/1
f 265/15/1 266/16/1 267/11/1 268/10/1
f 269/15/1 270/16/1 271/11/1 272/10/1
f 273/15/1 274/16/1 275/11/1 276/10/1
f 277/15/1 278/16/1 279/11/1 280/10/1
f 281/15/1 282/16/1 283/11/1 284/10/1
f 285/15/1 286/16/1 287/11/1 288/10/1
f 289/16/1 290/17/1 291/18/1 292/11/1
f 293/15/1 294/16/1 295/11/1 296/10/1
f 297/15/1 298/16/1 299/11/1 300/10/1
f 301/15/1 302/16/1 303/11/1 304/10/1
f 305/15/1 306/16/1 307/11/1 308/10/1
f 309/15/1 310/16/1 311/11/1 312/10/1
f 313/15/1 314/16/1 315/11/1 316/10/1
f 317/15/1 318/16/1 319/11/1 320/10/1
f 321/15/1 322/16/1 323/11/1 324/10/1
f 325/15/1 326/16/1 327/11/1 328/10/1
f 329/16/1 330/17/1 331/18/1 332/11/1
f 333/15/1 334/16/1 335/11/1 336/10/1
f 337/15/1 338/16/1 339/11/1 340/10/1
f 341/15/1 342/16/1 343/11/1 344/10/1
f 345/15/1 346/16/1 347/11/1 348/10/1
f 349/15/1 350/16/1 351/11/1 352/10/1
f 353/15/1 354/16/1 355/11/1 356/10/1
f 357/15/1 358/16/1 359/11/1 360/10/1
f 361/15/1 362/16/1 363/11/1 364/10/1
f 365/15/1 366/16/1 367/11/1 368/10/1
f 369/16/1 370/17/1 371/18/1 372/11/1

