# Tiled2Unity generated file. Do not modify by hand.
# Wavefront file for 'Chapter1_mesh_0074.obj'

# Vertices (Count = 64)
v -208 -16 0
v -464 -16 0
v -464 240 0
v -208 240 0
v -224 -16 0
v -480 -16 0
v -480 240 0
v -224 240 0
v -208 -32 0
v -464 -32 0
v -464 224 0
v -208 224 0
v -224 -32 0
v -480 -32 0
v -480 224 0
v -224 224 0
v -240 -32 0
v -496 -32 0
v -496 224 0
v -240 224 0
v -208 -48 0
v -464 -48 0
v -464 208 0
v -208 208 0
v -224 -48 0
v -480 -48 0
v -480 208 0
v -224 208 0
v -240 -48 0
v -496 -48 0
v -496 208 0
v -240 208 0
v -208 -64 0
v -464 -64 0
v -464 192 0
v -208 192 0
v -224 -64 0
v -480 -64 0
v -480 192 0
v -224 192 0
v -240 -64 0
v -496 -64 0
v -496 192 0
v -240 192 0
v -208 -80 0
v -464 -80 0
v -464 176 0
v -208 176 0
v -224 -80 0
v -480 -80 0
v -480 176 0
v -224 176 0
v -208 -96 0
v -464 -96 0
v -464 160 0
v -208 160 0
v -224 -96 0
v -480 -96 0
v -480 160 0
v -224 160 0
v -240 -96 0
v -496 -96 0
v -496 160 0
v -240 160 0

# Texture cooridinates (Count = 4)
vt 0.5 0.2
vt 1 0.2
vt 1 1
vt 0.5 1

# Normal
vn 0 0 -1

# Mesh description
g Chapter1_mesh_0074

# Faces
f 1/1/1 2/2/1 3/3/1 4/4/1
f 5/1/1 6/2/1 7/3/1 8/4/1
f 9/1/1 10/2/1 11/3/1 12/4/1
f 13/1/1 14/2/1 15/3/1 16/4/1
f 17/1/1 18/2/1 19/3/1 20/4/1
f 21/1/1 22/2/1 23/3/1 24/4/1
f 25/1/1 26/2/1 27/3/1 28/4/1
f 29/1/1 30/2/1 31/3/1 32/4/1
f 33/1/1 34/2/1 35/3/1 36/4/1
f 37/1/1 38/2/1 39/3/1 40/4/1
f 41/1/1 42/2/1 43/3/1 44/4/1
f 45/1/1 46/2/1 47/3/1 48/4/1
f 49/1/1 50/2/1 51/3/1 52/4/1
f 53/1/1 54/2/1 55/3/1 56/4/1
f 57/1/1 58/2/1 59/3/1 60/4/1
f 61/1/1 62/2/1 63/3/1 64/4/1

