# Tiled2Unity generated file. Do not modify by hand.
# Wavefront file for 'Chapter1_mesh_0087.obj'

# Vertices (Count = 40)
v -144 -240 0
v -400 -240 0
v -400 16 0
v -144 16 0
v -160 -240 0
v -416 -240 0
v -416 16 0
v -160 16 0
v -176 -240 0
v -432 -240 0
v -432 16 0
v -176 16 0
v -192 -240 0
v -448 -240 0
v -448 16 0
v -192 16 0
v -208 -240 0
v -464 -240 0
v -464 16 0
v -208 16 0
v -112 -256 0
v -368 -256 0
v -368 0 0
v -112 0 0
v -128 -256 0
v -384 -256 0
v -384 0 0
v -128 0 0
v -208 -256 0
v -464 -256 0
v -464 0 0
v -208 0 0
v -224 -256 0
v -480 -256 0
v -480 0 0
v -224 0 0
v -240 -256 0
v -496 -256 0
v -496 0 0
v -240 0 0

# Texture cooridinates (Count = 4)
vt 0.5 0.2
vt 1 0.2
vt 1 1
vt 0.5 1

# Normal
vn 0 0 -1

# Mesh description
g Chapter1_mesh_0087

# Faces
f 1/1/1 2/2/1 3/3/1 4/4/1
f 5/1/1 6/2/1 7/3/1 8/4/1
f 9/1/1 10/2/1 11/3/1 12/4/1
f 13/1/1 14/2/1 15/3/1 16/4/1
f 17/1/1 18/2/1 19/3/1 20/4/1
f 21/1/1 22/2/1 23/3/1 24/4/1
f 25/1/1 26/2/1 27/3/1 28/4/1
f 29/1/1 30/2/1 31/3/1 32/4/1
f 33/1/1 34/2/1 35/3/1 36/4/1
f 37/1/1 38/2/1 39/3/1 40/4/1

