# Tiled2Unity generated file. Do not modify by hand.
# Wavefront file for 'Chapter1_mesh_0066.obj'

# Vertices (Count = 12)
v -176 -240 0
v -432 -240 0
v -432 16 0
v -176 16 0
v -208 -256 0
v -464 -256 0
v -464 0 0
v -208 0 0
v -224 -256 0
v -480 -256 0
v -480 0 0
v -224 0 0

# Texture cooridinates (Count = 6)
vt 0 0.2
vt 0.5 0.2
vt 0.5 1
vt 0 1
vt 1 0.2
vt 1 1

# Normal
vn 0 0 -1

# Mesh description
g Chapter1_mesh_0066

# Faces
f 1/1/1 2/2/1 3/3/1 4/4/1
f 5/2/1 6/5/1 7/6/1 8/3/1
f 9/2/1 10/5/1 11/6/1 12/3/1

