# Tiled2Unity generated file. Do not modify by hand.
# Wavefront file for 'Chapter1_mesh_0107.obj'

# Vertices (Count = 36)
v -128 -240 0
v -144 -240 0
v -144 -224 0
v -128 -224 0
v -160 -240 0
v -176 -240 0
v -176 -224 0
v -160 -224 0
v -176 -240 0
v -192 -240 0
v -192 -224 0
v -176 -224 0
v -192 -240 0
v -208 -240 0
v -208 -224 0
v -192 -224 0
v -144 -256 0
v -160 -256 0
v -160 -240 0
v -144 -240 0
v -160 -256 0
v -176 -256 0
v -176 -240 0
v -160 -240 0
v -176 -256 0
v -192 -256 0
v -192 -240 0
v -176 -240 0
v -192 -256 0
v -208 -256 0
v -208 -240 0
v -192 -240 0
v -208 -256 0
v -224 -256 0
v -224 -240 0
v -208 -240 0

# Texture cooridinates (Count = 16)
vt 0.5 0.1666667
vt 0.6 0.1666667
vt 0.6 0.3333333
vt 0.5 0.3333333
vt 0.5 0
vt 0.6 0
vt 0.7 0
vt 0.7 0.1666667
vt 0 0.8333333
vt 0.1 0.8333333
vt 0.1 1
vt 0 1
vt 0.2 0.8333333
vt 0.2 1
vt 0.3 0.8333333
vt 0.3 1

# Normal
vn 0 0 -1

# Mesh description
g Chapter1_mesh_0107

# Faces
f 1/1/1 2/2/1 3/3/1 4/4/1
f 5/5/1 6/6/1 7/2/1 8/1/1
f 9/6/1 10/7/1 11/8/1 12/2/1
f 13/6/1 14/7/1 15/8/1 16/2/1
f 17/9/1 18/10/1 19/11/1 20/12/1
f 21/10/1 22/13/1 23/14/1 24/11/1
f 25/10/1 26/13/1 27/14/1 28/11/1
f 29/10/1 30/13/1 31/14/1 32/11/1
f 33/13/1 34/15/1 35/16/1 36/14/1

