# Tiled2Unity generated file. Do not modify by hand.
# Wavefront file for 'Chapter1_mesh_0091.obj'

# Vertices (Count = 128)
v -160 -160 0
v -416 -160 0
v -416 96 0
v -160 96 0
v -176 -160 0
v -432 -160 0
v -432 96 0
v -176 96 0
v -192 -160 0
v -448 -160 0
v -448 96 0
v -192 96 0
v -208 -160 0
v -464 -160 0
v -464 96 0
v -208 96 0
v -160 -176 0
v -416 -176 0
v -416 80 0
v -160 80 0
v -176 -176 0
v -432 -176 0
v -432 80 0
v -176 80 0
v -192 -176 0
v -448 -176 0
v -448 80 0
v -192 80 0
v -224 -176 0
v -480 -176 0
v -480 80 0
v -224 80 0
v -240 -176 0
v -496 -176 0
v -496 80 0
v -240 80 0
v -192 -192 0
v -448 -192 0
v -448 64 0
v -192 64 0
v -160 -224 0
v -416 -224 0
v -416 32 0
v -160 32 0
v -176 -224 0
v -432 -224 0
v -432 32 0
v -176 32 0
v -192 -224 0
v -448 -224 0
v -448 32 0
v -192 32 0
v -208 -224 0
v -464 -224 0
v -464 32 0
v -208 32 0
v -224 -224 0
v -480 -224 0
v -480 32 0
v -224 32 0
v -240 -224 0
v -496 -224 0
v -496 32 0
v -240 32 0
v -96 -240 0
v -352 -240 0
v -352 16 0
v -96 16 0
v -112 -240 0
v -368 -240 0
v -368 16 0
v -112 16 0
v -128 -240 0
v -384 -240 0
v -384 16 0
v -128 16 0
v -144 -240 0
v -400 -240 0
v -400 16 0
v -144 16 0
v -160 -240 0
v -416 -240 0
v -416 16 0
v -160 16 0
v -176 -240 0
v -432 -240 0
v -432 16 0
v -176 16 0
v -192 -240 0
v -448 -240 0
v -448 16 0
v -192 16 0
v -208 -240 0
v -464 -240 0
v -464 16 0
v -208 16 0
v -224 -240 0
v -480 -240 0
v -480 16 0
v -224 16 0
v -240 -240 0
v -496 -240 0
v -496 16 0
v -240 16 0
v 0 -256 0
v -256 -256 0
v -256 0 0
v 0 0 0
v -16 -256 0
v -272 -256 0
v -272 0 0
v -16 0 0
v -32 -256 0
v -288 -256 0
v -288 0 0
v -32 0 0
v -48 -256 0
v -304 -256 0
v -304 0 0
v -48 0 0
v -64 -256 0
v -320 -256 0
v -320 0 0
v -64 0 0
v -80 -256 0
v -336 -256 0
v -336 0 0
v -80 0 0

# Texture cooridinates (Count = 6)
vt 0 0.2
vt 0.5 0.2
vt 0.5 1
vt 0 1
vt 1 0.2
vt 1 1

# Normal
vn 0 0 -1

# Mesh description
g Chapter1_mesh_0091

# Faces
f 1/1/1 2/2/1 3/3/1 4/4/1
f 5/2/1 6/5/1 7/6/1 8/3/1
f 9/2/1 10/5/1 11/6/1 12/3/1
f 13/2/1 14/5/1 15/6/1 16/3/1
f 17/2/1 18/5/1 19/6/1 20/3/1
f 21/2/1 22/5/1 23/6/1 24/3/1
f 25/2/1 26/5/1 27/6/1 28/3/1
f 29/2/1 30/5/1 31/6/1 32/3/1
f 33/2/1 34/5/1 35/6/1 36/3/1
f 37/2/1 38/5/1 39/6/1 40/3/1
f 41/1/1 42/2/1 43/3/1 44/4/1
f 45/1/1 46/2/1 47/3/1 48/4/1
f 49/1/1 50/2/1 51/3/1 52/4/1
f 53/1/1 54/2/1 55/3/1 56/4/1
f 57/1/1 58/2/1 59/3/1 60/4/1
f 61/1/1 62/2/1 63/3/1 64/4/1
f 65/1/1 66/2/1 67/3/1 68/4/1
f 69/1/1 70/2/1 71/3/1 72/4/1
f 73/1/1 74/2/1 75/3/1 76/4/1
f 77/1/1 78/2/1 79/3/1 80/4/1
f 81/1/1 82/2/1 83/3/1 84/4/1
f 85/1/1 86/2/1 87/3/1 88/4/1
f 89/1/1 90/2/1 91/3/1 92/4/1
f 93/1/1 94/2/1 95/3/1 96/4/1
f 97/1/1 98/2/1 99/3/1 100/4/1
f 101/1/1 102/2/1 103/3/1 104/4/1
f 105/1/1 106/2/1 107/3/1 108/4/1
f 109/1/1 110/2/1 111/3/1 112/4/1
f 113/1/1 114/2/1 115/3/1 116/4/1
f 117/1/1 118/2/1 119/3/1 120/4/1
f 121/1/1 122/2/1 123/3/1 124/4/1
f 125/1/1 126/2/1 127/3/1 128/4/1

