# Tiled2Unity generated file. Do not modify by hand.
# Wavefront file for 'Chapter1_mesh_0092.obj'

# Vertices (Count = 172)
v 0 -176 0
v -256 -176 0
v -256 80 0
v 0 80 0
v -16 -176 0
v -272 -176 0
v -272 80 0
v -16 80 0
v -16 -192 0
v -272 -192 0
v -272 64 0
v -16 64 0
v -32 -192 0
v -288 -192 0
v -288 64 0
v -32 64 0
v -48 -192 0
v -304 -192 0
v -304 64 0
v -48 64 0
v -64 -192 0
v -320 -192 0
v -320 64 0
v -64 64 0
v -80 -208 0
v -336 -208 0
v -336 48 0
v -80 48 0
v -96 -208 0
v -352 -208 0
v -352 48 0
v -96 48 0
v -112 -208 0
v -368 -208 0
v -368 48 0
v -112 48 0
v -128 -208 0
v -384 -208 0
v -384 48 0
v -128 48 0
v 0 -224 0
v -256 -224 0
v -256 32 0
v 0 32 0
v -16 -224 0
v -272 -224 0
v -272 32 0
v -16 32 0
v -32 -224 0
v -288 -224 0
v -288 32 0
v -32 32 0
v -48 -224 0
v -304 -224 0
v -304 32 0
v -48 32 0
v -64 -224 0
v -320 -224 0
v -320 32 0
v -64 32 0
v -80 -224 0
v -336 -224 0
v -336 32 0
v -80 32 0
v -96 -224 0
v -352 -224 0
v -352 32 0
v -96 32 0
v -112 -224 0
v -368 -224 0
v -368 32 0
v -112 32 0
v -128 -224 0
v -384 -224 0
v -384 32 0
v -128 32 0
v -144 -224 0
v -400 -224 0
v -400 32 0
v -144 32 0
v -208 -224 0
v -464 -224 0
v -464 32 0
v -208 32 0
v -224 -224 0
v -480 -224 0
v -480 32 0
v -224 32 0
v 0 -240 0
v -256 -240 0
v -256 16 0
v 0 16 0
v -16 -240 0
v -272 -240 0
v -272 16 0
v -16 16 0
v -32 -240 0
v -288 -240 0
v -288 16 0
v -32 16 0
v -48 -240 0
v -304 -240 0
v -304 16 0
v -48 16 0
v -80 -240 0
v -336 -240 0
v -336 16 0
v -80 16 0
v -96 -240 0
v -352 -240 0
v -352 16 0
v -96 16 0
v -144 -240 0
v -400 -240 0
v -400 16 0
v -144 16 0
v -160 -240 0
v -416 -240 0
v -416 16 0
v -160 16 0
v -192 -240 0
v -448 -240 0
v -448 16 0
v -192 16 0
v -208 -240 0
v -464 -240 0
v -464 16 0
v -208 16 0
v -32 -256 0
v -288 -256 0
v -288 0 0
v -32 0 0
v -48 -256 0
v -304 -256 0
v -304 0 0
v -48 0 0
v -64 -256 0
v -320 -256 0
v -320 0 0
v -64 0 0
v -80 -256 0
v -336 -256 0
v -336 0 0
v -80 0 0
v -96 -256 0
v -352 -256 0
v -352 0 0
v -96 0 0
v -112 -256 0
v -368 -256 0
v -368 0 0
v -112 0 0
v -128 -256 0
v -384 -256 0
v -384 0 0
v -128 0 0
v -144 -256 0
v -400 -256 0
v -400 0 0
v -144 0 0
v -160 -256 0
v -416 -256 0
v -416 0 0
v -160 0 0
v -176 -256 0
v -432 -256 0
v -432 0 0
v -176 0 0
v -192 -256 0
v -448 -256 0
v -448 0 0
v -192 0 0

# Texture cooridinates (Count = 6)
vt 0.5 0.2
vt 1 0.2
vt 1 1
vt 0.5 1
vt 0 0.2
vt 0 1

# Normal
vn 0 0 -1

# Mesh description
g Chapter1_mesh_0092

# Faces
f 1/1/1 2/2/1 3/3/1 4/4/1
f 5/1/1 6/2/1 7/3/1 8/4/1
f 9/1/1 10/2/1 11/3/1 12/4/1
f 13/1/1 14/2/1 15/3/1 16/4/1
f 17/1/1 18/2/1 19/3/1 20/4/1
f 21/1/1 22/2/1 23/3/1 24/4/1
f 25/5/1 26/1/1 27/4/1 28/6/1
f 29/5/1 30/1/1 31/4/1 32/6/1
f 33/5/1 34/1/1 35/4/1 36/6/1
f 37/5/1 38/1/1 39/4/1 40/6/1
f 41/5/1 42/1/1 43/4/1 44/6/1
f 45/5/1 46/1/1 47/4/1 48/6/1
f 49/5/1 50/1/1 51/4/1 52/6/1
f 53/5/1 54/1/1 55/4/1 56/6/1
f 57/5/1 58/1/1 59/4/1 60/6/1
f 61/5/1 62/1/1 63/4/1 64/6/1
f 65/5/1 66/1/1 67/4/1 68/6/1
f 69/5/1 70/1/1 71/4/1 72/6/1
f 73/5/1 74/1/1 75/4/1 76/6/1
f 77/5/1 78/1/1 79/4/1 80/6/1
f 81/5/1 82/1/1 83/4/1 84/6/1
f 85/5/1 86/1/1 87/4/1 88/6/1
f 89/5/1 90/1/1 91/4/1 92/6/1
f 93/5/1 94/1/1 95/4/1 96/6/1
f 97/5/1 98/1/1 99/4/1 100/6/1
f 101/5/1 102/1/1 103/4/1 104/6/1
f 105/5/1 106/1/1 107/4/1 108/6/1
f 109/5/1 110/1/1 111/4/1 112/6/1
f 113/5/1 114/1/1 115/4/1 116/6/1
f 117/5/1 118/1/1 119/4/1 120/6/1
f 121/5/1 122/1/1 123/4/1 124/6/1
f 125/5/1 126/1/1 127/4/1 128/6/1
f 129/5/1 130/1/1 131/4/1 132/6/1
f 133/5/1 134/1/1 135/4/1 136/6/1
f 137/5/1 138/1/1 139/4/1 140/6/1
f 141/5/1 142/1/1 143/4/1 144/6/1
f 145/5/1 146/1/1 147/4/1 148/6/1
f 149/5/1 150/1/1 151/4/1 152/6/1
f 153/5/1 154/1/1 155/4/1 156/6/1
f 157/5/1 158/1/1 159/4/1 160/6/1
f 161/5/1 162/1/1 163/4/1 164/6/1
f 165/5/1 166/1/1 167/4/1 168/6/1
f 169/5/1 170/1/1 171/4/1 172/6/1

