# Tiled2Unity generated file. Do not modify by hand.
# Wavefront file for 'Chapter1_mesh_0102.obj'

# Vertices (Count = 140)
v 0 -16 0
v -256 -16 0
v -256 240 0
v 0 240 0
v -16 -16 0
v -272 -16 0
v -272 240 0
v -16 240 0
v -112 -16 0
v -368 -16 0
v -368 240 0
v -112 240 0
v -144 -16 0
v -400 -16 0
v -400 240 0
v -144 240 0
v -160 -16 0
v -416 -16 0
v -416 240 0
v -160 240 0
v -176 -16 0
v -432 -16 0
v -432 240 0
v -176 240 0
v -192 -16 0
v -448 -16 0
v -448 240 0
v -192 240 0
v -208 -16 0
v -464 -16 0
v -464 240 0
v -208 240 0
v 0 -32 0
v -256 -32 0
v -256 224 0
v 0 224 0
v -16 -32 0
v -272 -32 0
v -272 224 0
v -16 224 0
v -32 -32 0
v -288 -32 0
v -288 224 0
v -32 224 0
v -112 -32 0
v -368 -32 0
v -368 224 0
v -112 224 0
v -160 -32 0
v -416 -32 0
v -416 224 0
v -160 224 0
v -176 -32 0
v -432 -32 0
v -432 224 0
v -176 224 0
v -192 -32 0
v -448 -32 0
v -448 224 0
v -192 224 0
v -208 -32 0
v -464 -32 0
v -464 224 0
v -208 224 0
v -80 -48 0
v -336 -48 0
v -336 208 0
v -80 208 0
v -208 -48 0
v -464 -48 0
v -464 208 0
v -208 208 0
v 0 -64 0
v -256 -64 0
v -256 192 0
v 0 192 0
v -16 -64 0
v -272 -64 0
v -272 192 0
v -16 192 0
v -32 -64 0
v -288 -64 0
v -288 192 0
v -32 192 0
v -208 -64 0
v -464 -64 0
v -464 192 0
v -208 192 0
v -224 -64 0
v -480 -64 0
v -480 192 0
v -224 192 0
v 0 -80 0
v -256 -80 0
v -256 176 0
v 0 176 0
v -64 -80 0
v -320 -80 0
v -320 176 0
v -64 176 0
v -80 -80 0
v -336 -80 0
v -336 176 0
v -80 176 0
v -96 -80 0
v -352 -80 0
v -352 176 0
v -96 176 0
v -112 -80 0
v -368 -80 0
v -368 176 0
v -112 176 0
v -128 -80 0
v -384 -80 0
v -384 176 0
v -128 176 0
v -208 -80 0
v -464 -80 0
v -464 176 0
v -208 176 0
v -144 -96 0
v -400 -96 0
v -400 160 0
v -144 160 0
v -160 -96 0
v -416 -96 0
v -416 160 0
v -160 160 0
v -176 -96 0
v -432 -96 0
v -432 160 0
v -176 160 0
v -192 -96 0
v -448 -96 0
v -448 160 0
v -192 160 0
v -208 -96 0
v -464 -96 0
v -464 160 0
v -208 160 0

# Texture cooridinates (Count = 6)
vt 0 0.2
vt 0.5 0.2
vt 0.5 1
vt 0 1
vt 1 0.2
vt 1 1

# Normal
vn 0 0 -1

# Mesh description
g Chapter1_mesh_0102

# Faces
f 1/1/1 2/2/1 3/3/1 4/4/1
f 5/1/1 6/2/1 7/3/1 8/4/1
f 9/1/1 10/2/1 11/3/1 12/4/1
f 13/1/1 14/2/1 15/3/1 16/4/1
f 17/1/1 18/2/1 19/3/1 20/4/1
f 21/2/1 22/5/1 23/6/1 24/3/1
f 25/1/1 26/2/1 27/3/1 28/4/1
f 29/2/1 30/5/1 31/6/1 32/3/1
f 33/1/1 34/2/1 35/3/1 36/4/1
f 37/1/1 38/2/1 39/3/1 40/4/1
f 41/1/1 42/2/1 43/3/1 44/4/1
f 45/1/1 46/2/1 47/3/1 48/4/1
f 49/1/1 50/2/1 51/3/1 52/4/1
f 53/1/1 54/2/1 55/3/1 56/4/1
f 57/1/1 58/2/1 59/3/1 60/4/1
f 61/2/1 62/5/1 63/6/1 64/3/1
f 65/1/1 66/2/1 67/3/1 68/4/1
f 69/2/1 70/5/1 71/6/1 72/3/1
f 73/2/1 74/5/1 75/6/1 76/3/1
f 77/2/1 78/5/1 79/6/1 80/3/1
f 81/1/1 82/2/1 83/3/1 84/4/1
f 85/2/1 86/5/1 87/6/1 88/3/1
f 89/2/1 90/5/1 91/6/1 92/3/1
f 93/2/1 94/5/1 95/6/1 96/3/1
f 97/2/1 98/5/1 99/6/1 100/3/1
f 101/2/1 102/5/1 103/6/1 104/3/1
f 105/2/1 106/5/1 107/6/1 108/3/1
f 109/2/1 110/5/1 111/6/1 112/3/1
f 113/2/1 114/5/1 115/6/1 116/3/1
f 117/2/1 118/5/1 119/6/1 120/3/1
f 121/2/1 122/5/1 123/6/1 124/3/1
f 125/2/1 126/5/1 127/6/1 128/3/1
f 129/2/1 130/5/1 131/6/1 132/3/1
f 133/2/1 134/5/1 135/6/1 136/3/1
f 137/2/1 138/5/1 139/6/1 140/3/1

