# Tiled2Unity generated file. Do not modify by hand.
# Wavefront file for 'Chapter1_mesh_0081.obj'

# Vertices (Count = 124)
v -80 -16 0
v -336 -16 0
v -336 240 0
v -80 240 0
v -112 -16 0
v -368 -16 0
v -368 240 0
v -112 240 0
v -128 -16 0
v -384 -16 0
v -384 240 0
v -128 240 0
v -96 -32 0
v -352 -32 0
v -352 224 0
v -96 224 0
v -112 -32 0
v -368 -32 0
v -368 224 0
v -112 224 0
v -128 -32 0
v -384 -32 0
v -384 224 0
v -128 224 0
v -224 -32 0
v -480 -32 0
v -480 224 0
v -224 224 0
v -240 -32 0
v -496 -32 0
v -496 224 0
v -240 224 0
v -96 -48 0
v -352 -48 0
v -352 208 0
v -96 208 0
v -112 -48 0
v -368 -48 0
v -368 208 0
v -112 208 0
v -128 -48 0
v -384 -48 0
v -384 208 0
v -128 208 0
v -208 -48 0
v -464 -48 0
v -464 208 0
v -208 208 0
v -224 -48 0
v -480 -48 0
v -480 208 0
v -224 208 0
v -240 -48 0
v -496 -48 0
v -496 208 0
v -240 208 0
v -112 -64 0
v -368 -64 0
v -368 192 0
v -112 192 0
v -128 -64 0
v -384 -64 0
v -384 192 0
v -128 192 0
v -176 -64 0
v -432 -64 0
v -432 192 0
v -176 192 0
v -192 -64 0
v -448 -64 0
v -448 192 0
v -192 192 0
v -240 -64 0
v -496 -64 0
v -496 192 0
v -240 192 0
v -112 -80 0
v -368 -80 0
v -368 176 0
v -112 176 0
v -128 -80 0
v -384 -80 0
v -384 176 0
v -128 176 0
v -144 -80 0
v -400 -80 0
v -400 176 0
v -144 176 0
v -160 -80 0
v -416 -80 0
v -416 176 0
v -160 176 0
v -176 -80 0
v -432 -80 0
v -432 176 0
v -176 176 0
v -192 -80 0
v -448 -80 0
v -448 176 0
v -192 176 0
v -208 -80 0
v -464 -80 0
v -464 176 0
v -208 176 0
v -224 -80 0
v -480 -80 0
v -480 176 0
v -224 176 0
v -192 -96 0
v -448 -96 0
v -448 160 0
v -192 160 0
v -208 -96 0
v -464 -96 0
v -464 160 0
v -208 160 0
v -224 -96 0
v -480 -96 0
v -480 160 0
v -224 160 0
v -240 -96 0
v -496 -96 0
v -496 160 0
v -240 160 0

# Texture cooridinates (Count = 6)
vt 0.5 0.2
vt 1 0.2
vt 1 1
vt 0.5 1
vt 0 0.2
vt 0 1

# Normal
vn 0 0 -1

# Mesh description
g Chapter1_mesh_0081

# Faces
f 1/1/1 2/2/1 3/3/1 4/4/1
f 5/5/1 6/1/1 7/4/1 8/6/1
f 9/1/1 10/2/1 11/3/1 12/4/1
f 13/1/1 14/2/1 15/3/1 16/4/1
f 17/5/1 18/1/1 19/4/1 20/6/1
f 21/1/1 22/2/1 23/3/1 24/4/1
f 25/1/1 26/2/1 27/3/1 28/4/1
f 29/1/1 30/2/1 31/3/1 32/4/1
f 33/1/1 34/2/1 35/3/1 36/4/1
f 37/5/1 38/1/1 39/4/1 40/6/1
f 41/1/1 42/2/1 43/3/1 44/4/1
f 45/1/1 46/2/1 47/3/1 48/4/1
f 49/1/1 50/2/1 51/3/1 52/4/1
f 53/1/1 54/2/1 55/3/1 56/4/1
f 57/1/1 58/2/1 59/3/1 60/4/1
f 61/1/1 62/2/1 63/3/1 64/4/1
f 65/1/1 66/2/1 67/3/1 68/4/1
f 69/1/1 70/2/1 71/3/1 72/4/1
f 73/1/1 74/2/1 75/3/1 76/4/1
f 77/1/1 78/2/1 79/3/1 80/4/1
f 81/1/1 82/2/1 83/3/1 84/4/1
f 85/1/1 86/2/1 87/3/1 88/4/1
f 89/1/1 90/2/1 91/3/1 92/4/1
f 93/1/1 94/2/1 95/3/1 96/4/1
f 97/1/1 98/2/1 99/3/1 100/4/1
f 101/1/1 102/2/1 103/3/1 104/4/1
f 105/1/1 106/2/1 107/3/1 108/4/1
f 109/5/1 110/1/1 111/4/1 112/6/1
f 113/5/1 114/1/1 115/4/1 116/6/1
f 117/5/1 118/1/1 119/4/1 120/6/1
f 121/5/1 122/1/1 123/4/1 124/6/1

