# Tiled2Unity generated file. Do not modify by hand.
# Wavefront file for 'Chapter1_mesh_0083.obj'

# Vertices (Count = 20)
v -208 -16 0
v -464 -16 0
v -464 240 0
v -208 240 0
v -224 -16 0
v -480 -16 0
v -480 240 0
v -224 240 0
v -240 -16 0
v -496 -16 0
v -496 240 0
v -240 240 0
v -224 -64 0
v -480 -64 0
v -480 192 0
v -224 192 0
v -224 -80 0
v -480 -80 0
v -480 176 0
v -224 176 0

# Texture cooridinates (Count = 4)
vt 0 0.2
vt 0.5 0.2
vt 0.5 1
vt 0 1

# Normal
vn 0 0 -1

# Mesh description
g Chapter1_mesh_0083

# Faces
f 1/1/1 2/2/1 3/3/1 4/4/1
f 5/1/1 6/2/1 7/3/1 8/4/1
f 9/1/1 10/2/1 11/3/1 12/4/1
f 13/1/1 14/2/1 15/3/1 16/4/1
f 17/1/1 18/2/1 19/3/1 20/4/1

