# Tiled2Unity generated file. Do not modify by hand.
# Wavefront file for 'Chapter1_mesh_0120.obj'

# Vertices (Count = 560)
v -224 -112 0
v -240 -112 0
v -240 -96 0
v -224 -96 0
v -240 -112 0
v -256 -112 0
v -256 -96 0
v -240 -96 0
v -64 -128 0
v -80 -128 0
v -80 -112 0
v -64 -112 0
v -80 -128 0
v -96 -128 0
v -96 -112 0
v -80 -112 0
v -96 -128 0
v -112 -128 0
v -112 -112 0
v -96 -112 0
v -112 -128 0
v -128 -128 0
v -128 -112 0
v -112 -112 0
v -128 -128 0
v -144 -128 0
v -144 -112 0
v -128 -112 0
v -144 -128 0
v -160 -128 0
v -160 -112 0
v -144 -112 0
v -160 -128 0
v -176 -128 0
v -176 -112 0
v -160 -112 0
v -208 -128 0
v -224 -128 0
v -224 -112 0
v -208 -112 0
v -224 -128 0
v -240 -128 0
v -240 -112 0
v -224 -112 0
v -240 -128 0
v -256 -128 0
v -256 -112 0
v -240 -112 0
v 0 -144 0
v -16 -144 0
v -16 -128 0
v 0 -128 0
v -16 -144 0
v -32 -144 0
v -32 -128 0
v -16 -128 0
v -32 -144 0
v -48 -144 0
v -48 -128 0
v -32 -128 0
v -48 -144 0
v -64 -144 0
v -64 -128 0
v -48 -128 0
v -64 -144 0
v -80 -144 0
v -80 -128 0
v -64 -128 0
v -80 -144 0
v -96 -144 0
v -96 -128 0
v -80 -128 0
v -96 -144 0
v -112 -144 0
v -112 -128 0
v -96 -128 0
v -112 -144 0
v -128 -144 0
v -128 -128 0
v -112 -128 0
v -128 -144 0
v -144 -144 0
v -144 -128 0
v -128 -128 0
v -144 -144 0
v -160 -144 0
v -160 -128 0
v -144 -128 0
v -160 -144 0
v -176 -144 0
v -176 -128 0
v -160 -128 0
v -176 -144 0
v -192 -144 0
v -192 -128 0
v -176 -128 0
v -192 -144 0
v -208 -144 0
v -208 -128 0
v -192 -128 0
v -208 -144 0
v -224 -144 0
v -224 -128 0
v -208 -128 0
v -224 -144 0
v -240 -144 0
v -240 -128 0
v -224 -128 0
v -240 -144 0
v -256 -144 0
v -256 -128 0
v -240 -128 0
v 0 -160 0
v -16 -160 0
v -16 -144 0
v 0 -144 0
v -16 -160 0
v -32 -160 0
v -32 -144 0
v -16 -144 0
v -32 -160 0
v -48 -160 0
v -48 -144 0
v -32 -144 0
v -48 -160 0
v -64 -160 0
v -64 -144 0
v -48 -144 0
v -64 -160 0
v -80 -160 0
v -80 -144 0
v -64 -144 0
v -80 -160 0
v -96 -160 0
v -96 -144 0
v -80 -144 0
v -96 -160 0
v -112 -160 0
v -112 -144 0
v -96 -144 0
v -112 -160 0
v -128 -160 0
v -128 -144 0
v -112 -144 0
v -128 -160 0
v -144 -160 0
v -144 -144 0
v -128 -144 0
v -144 -160 0
v -160 -160 0
v -160 -144 0
v -144 -144 0
v -160 -160 0
v -176 -160 0
v -176 -144 0
v -160 -144 0
v -176 -160 0
v -192 -160 0
v -192 -144 0
v -176 -144 0
v -192 -160 0
v -208 -160 0
v -208 -144 0
v -192 -144 0
v -208 -160 0
v -224 -160 0
v -224 -144 0
v -208 -144 0
v -224 -160 0
v -240 -160 0
v -240 -144 0
v -224 -144 0
v -240 -160 0
v -256 -160 0
v -256 -144 0
v -240 -144 0
v 0 -176 0
v -16 -176 0
v -16 -160 0
v 0 -160 0
v -16 -176 0
v -32 -176 0
v -32 -160 0
v -16 -160 0
v -32 -176 0
v -48 -176 0
v -48 -160 0
v -32 -160 0
v -48 -176 0
v -64 -176 0
v -64 -160 0
v -48 -160 0
v -64 -176 0
v -80 -176 0
v -80 -160 0
v -64 -160 0
v -80 -176 0
v -96 -176 0
v -96 -160 0
v -80 -160 0
v -96 -176 0
v -112 -176 0
v -112 -160 0
v -96 -160 0
v -112 -176 0
v -128 -176 0
v -128 -160 0
v -112 -160 0
v -128 -176 0
v -144 -176 0
v -144 -160 0
v -128 -160 0
v -144 -176 0
v -160 -176 0
v -160 -160 0
v -144 -160 0
v -160 -176 0
v -176 -176 0
v -176 -160 0
v -160 -160 0
v -176 -176 0
v -192 -176 0
v -192 -160 0
v -176 -160 0
v -192 -176 0
v -208 -176 0
v -208 -160 0
v -192 -160 0
v -208 -176 0
v -224 -176 0
v -224 -160 0
v -208 -160 0
v -224 -176 0
v -240 -176 0
v -240 -160 0
v -224 -160 0
v -240 -176 0
v -256 -176 0
v -256 -160 0
v -240 -160 0
v 0 -192 0
v -16 -192 0
v -16 -176 0
v 0 -176 0
v -16 -192 0
v -32 -192 0
v -32 -176 0
v -16 -176 0
v -32 -192 0
v -48 -192 0
v -48 -176 0
v -32 -176 0
v -48 -192 0
v -64 -192 0
v -64 -176 0
v -48 -176 0
v -64 -192 0
v -80 -192 0
v -80 -176 0
v -64 -176 0
v -80 -192 0
v -96 -192 0
v -96 -176 0
v -80 -176 0
v -96 -192 0
v -112 -192 0
v -112 -176 0
v -96 -176 0
v -112 -192 0
v -128 -192 0
v -128 -176 0
v -112 -176 0
v -128 -192 0
v -144 -192 0
v -144 -176 0
v -128 -176 0
v -144 -192 0
v -160 -192 0
v -160 -176 0
v -144 -176 0
v -160 -192 0
v -176 -192 0
v -176 -176 0
v -160 -176 0
v -176 -192 0
v -192 -192 0
v -192 -176 0
v -176 -176 0
v -192 -192 0
v -208 -192 0
v -208 -176 0
v -192 -176 0
v -208 -192 0
v -224 -192 0
v -224 -176 0
v -208 -176 0
v -224 -192 0
v -240 -192 0
v -240 -176 0
v -224 -176 0
v -240 -192 0
v -256 -192 0
v -256 -176 0
v -240 -176 0
v 0 -208 0
v -16 -208 0
v -16 -192 0
v 0 -192 0
v -16 -208 0
v -32 -208 0
v -32 -192 0
v -16 -192 0
v -32 -208 0
v -48 -208 0
v -48 -192 0
v -32 -192 0
v -48 -208 0
v -64 -208 0
v -64 -192 0
v -48 -192 0
v -64 -208 0
v -80 -208 0
v -80 -192 0
v -64 -192 0
v -80 -208 0
v -96 -208 0
v -96 -192 0
v -80 -192 0
v -96 -208 0
v -112 -208 0
v -112 -192 0
v -96 -192 0
v -112 -208 0
v -128 -208 0
v -128 -192 0
v -112 -192 0
v -128 -208 0
v -144 -208 0
v -144 -192 0
v -128 -192 0
v -144 -208 0
v -160 -208 0
v -160 -192 0
v -144 -192 0
v -160 -208 0
v -176 -208 0
v -176 -192 0
v -160 -192 0
v -176 -208 0
v -192 -208 0
v -192 -192 0
v -176 -192 0
v -192 -208 0
v -208 -208 0
v -208 -192 0
v -192 -192 0
v -208 -208 0
v -224 -208 0
v -224 -192 0
v -208 -192 0
v -224 -208 0
v -240 -208 0
v -240 -192 0
v -224 -192 0
v -240 -208 0
v -256 -208 0
v -256 -192 0
v -240 -192 0
v 0 -224 0
v -16 -224 0
v -16 -208 0
v 0 -208 0
v -16 -224 0
v -32 -224 0
v -32 -208 0
v -16 -208 0
v -32 -224 0
v -48 -224 0
v -48 -208 0
v -32 -208 0
v -48 -224 0
v -64 -224 0
v -64 -208 0
v -48 -208 0
v -64 -224 0
v -80 -224 0
v -80 -208 0
v -64 -208 0
v -80 -224 0
v -96 -224 0
v -96 -208 0
v -80 -208 0
v -96 -224 0
v -112 -224 0
v -112 -208 0
v -96 -208 0
v -112 -224 0
v -128 -224 0
v -128 -208 0
v -112 -208 0
v -128 -224 0
v -144 -224 0
v -144 -208 0
v -128 -208 0
v -144 -224 0
v -160 -224 0
v -160 -208 0
v -144 -208 0
v -160 -224 0
v -176 -224 0
v -176 -208 0
v -160 -208 0
v -176 -224 0
v -192 -224 0
v -192 -208 0
v -176 -208 0
v -192 -224 0
v -208 -224 0
v -208 -208 0
v -192 -208 0
v -208 -224 0
v -224 -224 0
v -224 -208 0
v -208 -208 0
v -224 -224 0
v -240 -224 0
v -240 -208 0
v -224 -208 0
v -240 -224 0
v -256 -224 0
v -256 -208 0
v -240 -208 0
v 0 -240 0
v -16 -240 0
v -16 -224 0
v 0 -224 0
v -16 -240 0
v -32 -240 0
v -32 -224 0
v -16 -224 0
v -32 -240 0
v -48 -240 0
v -48 -224 0
v -32 -224 0
v -48 -240 0
v -64 -240 0
v -64 -224 0
v -48 -224 0
v -64 -240 0
v -80 -240 0
v -80 -224 0
v -64 -224 0
v -80 -240 0
v -96 -240 0
v -96 -224 0
v -80 -224 0
v -96 -240 0
v -112 -240 0
v -112 -224 0
v -96 -224 0
v -112 -240 0
v -128 -240 0
v -128 -224 0
v -112 -224 0
v -128 -240 0
v -144 -240 0
v -144 -224 0
v -128 -224 0
v -144 -240 0
v -160 -240 0
v -160 -224 0
v -144 -224 0
v -160 -240 0
v -176 -240 0
v -176 -224 0
v -160 -224 0
v -176 -240 0
v -192 -240 0
v -192 -224 0
v -176 -224 0
v -192 -240 0
v -208 -240 0
v -208 -224 0
v -192 -224 0
v -208 -240 0
v -224 -240 0
v -224 -224 0
v -208 -224 0
v -224 -240 0
v -240 -240 0
v -240 -224 0
v -224 -224 0
v -240 -240 0
v -256 -240 0
v -256 -224 0
v -240 -224 0
v 0 -256 0
v -16 -256 0
v -16 -240 0
v 0 -240 0
v -16 -256 0
v -32 -256 0
v -32 -240 0
v -16 -240 0
v -32 -256 0
v -48 -256 0
v -48 -240 0
v -32 -240 0
v -48 -256 0
v -64 -256 0
v -64 -240 0
v -48 -240 0
v -64 -256 0
v -80 -256 0
v -80 -240 0
v -64 -240 0
v -80 -256 0
v -96 -256 0
v -96 -240 0
v -80 -240 0
v -96 -256 0
v -112 -256 0
v -112 -240 0
v -96 -240 0
v -112 -256 0
v -128 -256 0
v -128 -240 0
v -112 -240 0
v -128 -256 0
v -144 -256 0
v -144 -240 0
v -128 -240 0
v -144 -256 0
v -160 -256 0
v -160 -240 0
v -144 -240 0
v -160 -256 0
v -176 -256 0
v -176 -240 0
v -160 -240 0
v -176 -256 0
v -192 -256 0
v -192 -240 0
v -176 -240 0
v -192 -256 0
v -208 -256 0
v -208 -240 0
v -192 -240 0
v -208 -256 0
v -224 -256 0
v -224 -240 0
v -208 -240 0
v -224 -256 0
v -240 -256 0
v -240 -240 0
v -224 -240 0
v -240 -256 0
v -256 -256 0
v -256 -240 0
v -240 -240 0

# Texture cooridinates (Count = 28)
vt 0.6 0.3333333
vt 0.7 0.3333333
vt 0.7 0.5
vt 0.6 0.5
vt 0.8 0.3333333
vt 0.8 0.5
vt 0.5 0
vt 0.6 0
vt 0.6 0.1666667
vt 0.5 0.1666667
vt 0.7 0
vt 0.7 0.1666667
vt 0 0.8333333
vt 0.1 0.8333333
vt 0.1 1
vt 0 1
vt 0.2 0.8333333
vt 0.2 1
vt 0.6 0.8333333
vt 0.7 0.8333333
vt 0.7 1
vt 0.6 1
vt 0.1 0.6666666
vt 0.2 0.6666666
vt 0.3 0.5
vt 0.4 0.5
vt 0.4 0.6666666
vt 0.3 0.6666666

# Normal
vn 0 0 -1

# Mesh description
g Chapter1_mesh_0120

# Faces
f 1/1/1 2/2/1 3/3/1 4/4/1
f 5/2/1 6/5/1 7/6/1 8/3/1
f 9/7/1 10/8/1 11/9/1 12/10/1
f 13/8/1 14/11/1 15/12/1 16/9/1
f 17/8/1 18/11/1 19/12/1 20/9/1
f 21/8/1 22/11/1 23/12/1 24/9/1
f 25/8/1 26/11/1 27/12/1 28/9/1
f 29/8/1 30/11/1 31/12/1 32/9/1
f 33/8/1 34/11/1 35/12/1 36/9/1
f 37/13/1 38/14/1 39/15/1 40/16/1
f 41/14/1 42/17/1 43/18/1 44/15/1
f 45/14/1 46/17/1 47/18/1 48/15/1
f 49/14/1 50/17/1 51/18/1 52/15/1
f 53/14/1 54/17/1 55/18/1 56/15/1
f 57/14/1 58/17/1 59/18/1 60/15/1
f 61/14/1 62/17/1 63/18/1 64/15/1
f 65/14/1 66/17/1 67/18/1 68/15/1
f 69/14/1 70/17/1 71/18/1 72/15/1
f 73/14/1 74/17/1 75/18/1 76/15/1
f 77/14/1 78/17/1 79/18/1 80/15/1
f 81/14/1 82/17/1 83/18/1 84/15/1
f 85/14/1 86/17/1 87/18/1 88/15/1
f 89/14/1 90/17/1 91/18/1 92/15/1
f 93/14/1 94/17/1 95/18/1 96/15/1
f 97/14/1 98/17/1 99/18/1 100/15/1
f 101/14/1 102/17/1 103/18/1 104/15/1
f 105/19/1 106/20/1 107/21/1 108/22/1
f 109/23/1 110/24/1 111/17/1 112/14/1
f 113/23/1 114/24/1 115/17/1 116/14/1
f 117/23/1 118/24/1 119/17/1 120/14/1
f 121/23/1 122/24/1 123/17/1 124/14/1
f 125/23/1 126/24/1 127/17/1 128/14/1
f 129/23/1 130/24/1 131/17/1 132/14/1
f 133/23/1 134/24/1 135/17/1 136/14/1
f 137/23/1 138/24/1 139/17/1 140/14/1
f 141/23/1 142/24/1 143/17/1 144/14/1
f 145/23/1 146/24/1 147/17/1 148/14/1
f 149/23/1 150/24/1 151/17/1 152/14/1
f 153/23/1 154/24/1 155/17/1 156/14/1
f 157/23/1 158/24/1 159/17/1 160/14/1
f 161/23/1 162/24/1 163/17/1 164/14/1
f 165/23/1 166/24/1 167/17/1 168/14/1
f 169/23/1 170/24/1 171/17/1 172/14/1
f 173/23/1 174/24/1 175/17/1 176/14/1
f 177/23/1 178/24/1 179/17/1 180/14/1
f 181/23/1 182/24/1 183/17/1 184/14/1
f 185/23/1 186/24/1 187/17/1 188/14/1
f 189/23/1 190/24/1 191/17/1 192/14/1
f 193/23/1 194/24/1 195/17/1 196/14/1
f 197/23/1 198/24/1 199/17/1 200/14/1
f 201/23/1 202/24/1 203/17/1 204/14/1
f 205/23/1 206/24/1 207/17/1 208/14/1
f 209/23/1 210/24/1 211/17/1 212/14/1
f 213/23/1 214/24/1 215/17/1 216/14/1
f 217/23/1 218/24/1 219/17/1 220/14/1
f 221/23/1 222/24/1 223/17/1 224/14/1
f 225/23/1 226/24/1 227/17/1 228/14/1
f 229/23/1 230/24/1 231/17/1 232/14/1
f 233/23/1 234/24/1 235/17/1 236/14/1
f 237/25/1 238/26/1 239/27/1 240/28/1
f 241/23/1 242/24/1 243/17/1 244/14/1
f 245/23/1 246/24/1 247/17/1 248/14/1
f 249/23/1 250/24/1 251/17/1 252/14/1
f 253/23/1 254/24/1 255/17/1 256/14/1
f 257/23/1 258/24/1 259/17/1 260/14/1
f 261/23/1 262/24/1 263/17/1 264/14/1
f 265/23/1 266/24/1 267/17/1 268/14/1
f 269/23/1 270/24/1 271/17/1 272/14/1
f 273/23/1 274/24/1 275/17/1 276/14/1
f 277/23/1 278/24/1 279/17/1 280/14/1
f 281/23/1 282/24/1 283/17/1 284/14/1
f 285/23/1 286/24/1 287/17/1 288/14/1
f 289/23/1 290/24/1 291/17/1 292/14/1
f 293/23/1 294/24/1 295/17/1 296/14/1
f 297/23/1 298/24/1 299/17/1 300/14/1
f 301/23/1 302/24/1 303/17/1 304/14/1
f 305/23/1 306/24/1 307/17/1 308/14/1
f 309/23/1 310/24/1 311/17/1 312/14/1
f 313/23/1 314/24/1 315/17/1 316/14/1
f 317/23/1 318/24/1 319/17/1 320/14/1
f 321/23/1 322/24/1 323/17/1 324/14/1
f 325/23/1 326/24/1 327/17/1 328/14/1
f 329/23/1 330/24/1 331/17/1 332/14/1
f 333/25/1 334/26/1 335/27/1 336/28/1
f 337/23/1 338/24/1 339/17/1 340/14/1
f 341/23/1 342/24/1 343/17/1 344/14/1
f 345/23/1 346/24/1 347/17/1 348/14/1
f 349/23/1 350/24/1 351/17/1 352/14/1
f 353/23/1 354/24/1 355/17/1 356/14/1
f 357/23/1 358/24/1 359/17/1 360/14/1
f 361/23/1 362/24/1 363/17/1 364/14/1
f 365/23/1 366/24/1 367/17/1 368/14/1
f 369/23/1 370/24/1 371/17/1 372/14/1
f 373/23/1 374/24/1 375/17/1 376/14/1
f 377/23/1 378/24/1 379/17/1 380/14/1
f 381/23/1 382/24/1 383/17/1 384/14/1
f 385/23/1 386/24/1 387/17/1 388/14/1
f 389/23/1 390/24/1 391/17/1 392/14/1
f 393/23/1 394/24/1 395/17/1 396/14/1
f 397/23/1 398/24/1 399/17/1 400/14/1
f 401/23/1 402/24/1 403/17/1 404/14/1
f 405/23/1 406/24/1 407/17/1 408/14/1
f 409/23/1 410/24/1 411/17/1 412/14/1
f 413/23/1 414/24/1 415/17/1 416/14/1
f 417/23/1 418/24/1 419/17/1 420/14/1
f 421/23/1 422/24/1 423/17/1 424/14/1
f 425/23/1 426/24/1 427/17/1 428/14/1
f 429/23/1 430/24/1 431/17/1 432/14/1
f 433/23/1 434/24/1 435/17/1 436/14/1
f 437/23/1 438/24/1 439/17/1 440/14/1
f 441/23/1 442/24/1 443/17/1 444/14/1
f 445/23/1 446/24/1 447/17/1 448/14/1
f 449/23/1 450/24/1 451/17/1 452/14/1
f 453/23/1 454/24/1 455/17/1 456/14/1
f 457/23/1 458/24/1 459/17/1 460/14/1
f 461/23/1 462/24/1 463/17/1 464/14/1
f 465/23/1 466/24/1 467/17/1 468/14/1
f 469/23/1 470/24/1 471/17/1 472/14/1
f 473/23/1 474/24/1 475/17/1 476/14/1
f 477/23/1 478/24/1 479/17/1 480/14/1
f 481/23/1 482/24/1 483/17/1 484/14/1
f 485/23/1 486/24/1 487/17/1 488/14/1
f 489/23/1 490/24/1 491/17/1 492/14/1
f 493/23/1 494/24/1 495/17/1 496/14/1
f 497/23/1 498/24/1 499/17/1 500/14/1
f 501/23/1 502/24/1 503/17/1 504/14/1
f 505/23/1 506/24/1 507/17/1 508/14/1
f 509/23/1 510/24/1 511/17/1 512/14/1
f 513/23/1 514/24/1 515/17/1 516/14/1
f 517/23/1 518/24/1 519/17/1 520/14/1
f 521/23/1 522/24/1 523/17/1 524/14/1
f 525/23/1 526/24/1 527/17/1 528/14/1
f 529/23/1 530/24/1 531/17/1 532/14/1
f 533/23/1 534/24/1 535/17/1 536/14/1
f 537/23/1 538/24/1 539/17/1 540/14/1
f 541/23/1 542/24/1 543/17/1 544/14/1
f 545/23/1 546/24/1 547/17/1 548/14/1
f 549/23/1 550/24/1 551/17/1 552/14/1
f 553/23/1 554/24/1 555/17/1 556/14/1
f 557/23/1 558/24/1 559/17/1 560/14/1

